<?xml version="1.0" encoding="UTF-8"?><svg id="Layer_1" xmlns="http://www.w3.org/2000/svg" viewBox="0 0 468.58 394.35"><defs><style>.cls-1{fill:#f99532;}.cls-2{fill:#686868;}</style></defs><path class="cls-2" d="m240.37,48.55l-1.34-7.6c-.24-1.3-.41-2.45-.7-3.88-.38-1.6-.66-3.23-1.18-4.8-1.92-6.32-5.27-12.21-9.72-17.09-2.41-2.71-5.19-5.07-8.2-7.07-5.68-3.97-12.27-6.65-19.16-7.65-1.63-.28-3.29-.32-4.94-.46-1.65-.02-3.31.03-4.95.11l-2.45.3-1.23.16-.61.08-.48.08-3.8.67-15.2,2.68-30.39,5.36-60.79,10.71-32.38,5.7c-.42.15-1.14.8-1.35,1.02l-2.68.47-1.9.33-2.4.53c-.8.19-1.61.35-2.4.59l-2.35.79c-3.13,1.05-6.1,2.56-8.92,4.28-5.63,3.48-10.35,8.33-13.89,13.88-3.53,5.57-5.87,11.92-6.65,18.49-.12,1.65-.33,3.3-.31,4.95.07,1.65-.02,3.31.24,4.94.39,3.6.87,5.71,1.31,8.33l.49,2.76c.55,5.75.95,9.48.95,9.48l25.73,146.03,10.71,60.79,1.34,7.6c.24,1.3.41,2.45.7,3.88.38,1.6.66,3.23,1.18,4.8,1.92,6.32,5.27,12.21,9.72,17.09,2.41,2.71,5.19,5.07,8.2,7.07,5.68,3.97,12.27,6.65,19.16,7.65,1.63.28,3.29.32,4.94.46,1.65.02,3.31-.03,4.95-.11l2.45-.3,1.23-.16.61-.08.48-.08,3.8-.67,15.2-2.68,30.39-5.36,59.24-10.44c-.14-1.97-.06-3.96.28-5.93l2.63-14.93.09-.52-110.25,19.44-3.74.66c-1.23.22-2.61.48-3.37.53l-1.35.18c-.45.06-.9.02-1.35.05l-1.35.04-1.35-.12c-3.58-.29-7.12-1.36-10.26-3.16-.52-.3-1-.64-1.49-.97-2.17-1.61-4.09-3.56-5.64-5.76-2.08-2.95-3.5-6.33-4.15-9.91l-2.63-14.93-10.54-59.77-21.08-119.53-5.27-29.88-1.32-7.47-.66-3.74-.08-.47-.04-.35-.08-.68-.18-1.35c-.33-3.61.24-7.24,1.5-10.62,1.27-3.38,3.28-6.49,5.84-9.05,2.56-2.57,5.71-4.47,9.11-5.67.85-.3,1.7-.61,2.6-.76l1.32-.31,1.84-.33,7.47-1.32,14.94-2.63,119.53-21.08,3.74-.66c1.23-.22,2.61-.48,3.37-.53l1.35-.18c.45-.06.9-.02,1.35-.05l1.35-.04,1.35.12c3.58.29,7.12,1.36,10.26,3.16.52.3,1,.64,1.49.97,2.17,1.61,4.09,3.56,5.64,5.76,2.08,2.95,3.5,6.33,4.15,9.91l2.63,14.93,10.54,59.77,4.65,26.4,1.65-9.38,5.27-29.88,1.32-7.47.66-3.74.08-.47.08-.34.16-.66.3-1.33c.32-1.23.79-2.4,1.31-3.55l-6.35-36.03Z"/><path class="cls-2" d="m223.41,195.47c-3.69-20.54-7.47-36.23-11.31-47.09-3.85-10.85-8.64-19.3-14.38-25.33-8.83-9.79-20.13-13.44-33.9-10.96-13.77,2.48-23.76,10.48-29.94,24-9.46-11.39-20.79-15.91-33.98-13.54-10.35,1.86-17.88,7.44-22.59,16.73-2.13-3.24-4.75-4.58-7.83-4.02-3.09.56-5.6,2.39-7.54,5.49-1.94,3.11-2.61,6.33-2.01,9.67,8.75,25.66,16.16,55.35,22.23,89.07,1.71,4.69,4.73,6.65,9.07,5.87,7.85-1.41,10.48-9.29,7.89-23.65l-9.88-46.31c-1.8-10.02-1.65-17.54.46-22.58,2.11-5.03,6.21-8.1,12.31-9.19,6.09-1.1,10.84-.83,14.23.8,6.99,3.4,12.13,14.28,15.44,32.64l8.57,51.97c1.87,4.67,4.64,6.66,8.32,6,2.84-.51,5.43-1.92,7.77-4.24,2.34-2.32,3.27-4.81,2.79-7.48l-6.53-36.31c-1.47-8.18-2.78-17.34-3.91-27.48-.52-5.77.17-11.49,2.08-17.18,1.72-4.79,5.67-7.74,11.85-8.85,19.53-3.52,32.68,13.51,39.44,51.07l4.88,31.44c.99,5.51,3.65,7.87,8,7.09,3.23-.58,5.62-1.86,7.22-3.81l2.48-14.06c-.18-2.93-.58-6.17-1.23-9.76Z"/><path class="cls-2" d="m222.16,219.29c1.05-1.28,1.76-2.84,2.11-4.72.48-2.61.6-5.74.37-9.35l-2.48,14.06Z"/><path class="cls-1" d="m465.23,97.85c-1.34-3.37-3.14-6.54-5.29-9.45-3.98-5.67-9.26-10.44-15.39-13.74-1.44-.82-2.99-1.43-4.49-2.12-1.54-.58-3.12-1.11-4.69-1.59l-2.41-.56-1.21-.27-.6-.13-.48-.09-3.8-.67-15.2-2.68-30.39-5.36-60.78-10.72-32.38-5.72c-.44,0-1.34.36-1.62.5l-2.68-.47-1.9-.34-2.43-.32c-.82-.09-1.63-.22-2.46-.27l-2.48-.07c-3.3-.08-6.61.32-9.85.97-6.48,1.35-12.58,4.28-17.8,8.29-5.22,4.02-9.59,9.19-12.58,15.1-.67,1.51-1.44,2.99-1.98,4.55-.5,1.57-1.15,3.11-1.47,4.73-.86,3.51-1.13,5.67-1.62,8.28l-.49,2.76c-1.45,5.59-2.35,9.23-2.35,9.23l-25.76,146.02-10.72,60.78-1.34,7.6c-.22,1.31-.45,2.44-.67,3.89-.19,1.63-.48,3.26-.54,4.91-.36,6.59.78,13.28,3.29,19.38,1.34,3.37,3.14,6.54,5.29,9.45,3.98,5.67,9.26,10.44,15.39,13.74,1.44.82,2.99,1.43,4.49,2.12,1.54.58,3.12,1.11,4.69,1.59l2.41.56,1.21.27.6.13.48.09,3.8.67,15.2,2.68,30.39,5.36,60.78,10.72,32.38,5.72c.44,0,1.34-.36,1.62-.5l2.68.47,1.9.34,2.43.32c.82.09,1.63.22,2.46.27l2.48.07c3.3.08,6.61-.32,9.85-.97,6.48-1.35,12.58-4.28,17.8-8.29,5.22-4.02,9.59-9.19,12.58-15.1.67-1.51,1.44-2.99,1.98-4.55.5-1.57,1.15-3.11,1.47-4.73.86-3.51,1.13-5.67,1.62-8.28l.49-2.76c1.45-5.59,2.35-9.23,2.35-9.23l25.77-146.02,10.72-60.78,1.34-7.6c.22-1.31.45-2.44.67-3.89.19-1.63.48-3.26.54-4.91.36-6.59-.78-13.28-3.29-19.38Zm-17.39,20.4l-2.63,14.93-10.54,59.77-21.08,119.53-5.27,29.88-1.32,7.47-.66,3.74-.08.47-.08.34-.16.66-.3,1.33c-.93,3.5-2.7,6.73-5.05,9.47-2.35,2.74-5.3,4.98-8.58,6.5-3.28,1.54-6.9,2.25-10.5,2.21-.9-.01-1.81-.01-2.7-.18l-1.35-.16-1.84-.32-7.47-1.32-14.94-2.63-119.53-21.08-3.74-.66c-1.23-.22-2.62-.44-3.35-.65l-1.33-.3c-.44-.1-.86-.29-1.29-.42l-1.29-.42-1.23-.57c-3.27-1.5-6.22-3.71-8.57-6.48-.38-.46-.72-.94-1.07-1.43-1.49-2.26-2.62-4.75-3.33-7.34-.95-3.48-1.13-7.14-.51-10.73l2.63-14.93,10.54-59.76,21.08-119.53,5.27-29.88,1.32-7.47.66-3.74.08-.47.08-.34.16-.66.3-1.33c.93-3.5,2.7-6.73,5.05-9.47,2.35-2.74,5.3-4.98,8.58-6.5,3.28-1.54,6.9-2.25,10.5-2.21.9.01,1.81.01,2.7.18l1.35.16,1.84.32,7.47,1.32,14.94,2.63,119.53,21.08,3.74.66c1.23.22,2.62.44,3.35.65l1.33.3c.44.1.86.29,1.29.42l1.29.42,1.23.57c3.27,1.5,6.22,3.71,8.56,6.48.38.46.72.95,1.07,1.43,1.49,2.26,2.62,4.74,3.33,7.34.95,3.48,1.13,7.14.51,10.73Z"/><path class="cls-1" d="m372.31,167.15c-13.79-2.38-25.91,1.72-36.34,12.31-5-13.94-14.1-22.06-27.3-24.34-10.37-1.79-19.35.88-26.95,8-.9-3.77-2.89-5.92-5.99-6.46-3.1-.53-6.09.33-8.97,2.58-2.89,2.26-4.62,5.06-5.2,8.4-.55,27.11-3.74,57.54-9.58,91.3,0,5,2.17,7.86,6.52,8.61,7.85,1.36,13.02-5.15,15.51-19.53l6.55-46.9c1.73-10.03,4.45-17.05,8.16-21.06,3.7-4.01,8.61-5.49,14.71-4.43,6.1,1.05,10.47,2.93,13.1,5.62,5.4,5.58,6.52,17.57,3.34,35.95l-9.72,51.77c.16,5.02,2.09,7.85,5.76,8.49,2.84.49,5.76.05,8.75-1.33,2.99-1.38,4.72-3.4,5.18-6.08l6.28-36.36c1.41-8.19,3.32-17.24,5.72-27.16,1.48-5.6,4.09-10.74,7.83-15.43,3.26-3.91,7.98-5.34,14.16-4.27,19.56,3.38,26.09,23.87,19.59,61.48l-6.17,31.21c-.95,5.52.74,8.65,5.09,9.4,5.35.92,9.24-.68,11.68-4.82,2.43-4.14,4.35-10.22,5.73-18.25,3.55-20.56,5.37-36.6,5.47-48.12.09-11.51-1.52-21.09-4.85-28.73-4.95-12.22-14.32-19.52-28.11-21.9Z"/></svg>