<svg width="48" height="48" viewBox="0 0 48 48" fill="none" xmlns="http://www.w3.org/2000/svg">
<g clip-path="url(#clip0_101_468)">
<path d="M0 7.96875C0 3.56773 3.56773 0 7.96875 0H40.0312C44.4323 0 48 3.56773 48 7.96875V40.0312C48 44.4323 44.4323 48 40.0312 48H7.96875C3.56773 48 0 44.4323 0 40.0312V7.96875Z" fill="url(#paint0_linear_101_468)"/>
<path d="M0 7.96875C0 3.56773 3.56773 0 7.96875 0H40.0312C44.4323 0 48 3.56773 48 7.96875V40.0312C48 44.4323 44.4323 48 40.0312 48H7.96875C3.56773 48 0 44.4323 0 40.0312V7.96875Z" fill="url(#paint1_radial_101_468)" fill-opacity="0.5"/>
<path d="M0 7.96875C0 3.56773 3.56773 0 7.96875 0H40.0312C44.4323 0 48 3.56773 48 7.96875V40.0312C48 44.4323 44.4323 48 40.0312 48H7.96875C3.56773 48 0 44.4323 0 40.0312V7.96875Z" fill="url(#paint2_linear_101_468)" fill-opacity="0.2"/>
<g filter="url(#filter0_d_101_468)">
<path fill-rule="evenodd" clip-rule="evenodd" d="M24.3738 11.5956L24.4794 12.1991H24.477L24.9776 15.06C24.9366 15.1513 24.8995 15.2442 24.8743 15.3419L24.8507 15.4475L24.838 15.4999L24.8317 15.5269L24.8254 15.5642L24.7734 15.8612L24.6694 16.4543L24.2539 18.8269L24.1239 19.5717L23.7573 17.4754L22.9265 12.7295L22.7191 11.544C22.6679 11.2598 22.556 10.9914 22.392 10.7571C22.2698 10.5825 22.1185 10.4276 21.9474 10.2998C21.9088 10.2736 21.8709 10.2466 21.83 10.2228C21.5824 10.0798 21.3034 9.99489 21.0212 9.97185L20.9148 9.96232L20.8083 9.96551C20.7937 9.96648 20.7791 9.96652 20.7645 9.96656C20.7436 9.96662 20.7228 9.96667 20.7019 9.96947L20.5955 9.98376C20.5426 9.98727 20.4516 10.0038 20.3643 10.0196C20.3527 10.0217 20.3412 10.0238 20.3298 10.0258L20.035 10.0783L10.6126 11.7521L9.43495 11.9609L8.84609 12.0657L8.70105 12.0919L8.597 12.1165C8.52983 12.1278 8.4662 12.1505 8.40275 12.1731L8.39204 12.1769C8.12403 12.2722 7.87572 12.423 7.67391 12.6271C7.47211 12.8304 7.31367 13.0773 7.21356 13.3457C7.11423 13.6141 7.0693 13.9023 7.09531 14.1889L7.1095 14.2961L7.11581 14.3501L7.11896 14.3779L7.12527 14.4152L7.17729 14.7122L7.28135 15.3053L7.69678 17.6779L9.35848 27.1689L10.1893 31.9148L10.3967 33.1003C10.4479 33.3846 10.5598 33.6529 10.7238 33.8872C10.846 34.0619 10.9973 34.2167 11.1684 34.3446C11.1761 34.3498 11.1838 34.355 11.1915 34.3603C11.2222 34.3814 11.253 34.4025 11.2858 34.4216C11.5334 34.5645 11.8124 34.6495 12.0946 34.6725L12.201 34.682L12.3075 34.6788C12.3221 34.6779 12.3367 34.6778 12.3513 34.6778C12.3721 34.6777 12.393 34.6777 12.4139 34.6749L12.5203 34.6606C12.5733 34.6571 12.6644 34.6405 12.7518 34.6247C12.7633 34.6226 12.7747 34.6205 12.7859 34.6185L13.0808 34.5661L21.7716 33.0225L21.7645 33.0638L21.5572 34.2493C21.5304 34.4057 21.5241 34.5637 21.5351 34.7201L16.8653 35.5491L14.4697 35.9747L13.2715 36.1875L12.972 36.2407L12.9341 36.247L12.8861 36.2534L12.7891 36.2661L12.596 36.2899C12.4667 36.2963 12.3358 36.3002 12.2058 36.2987C12.1676 36.2954 12.1293 36.2928 12.091 36.2902C11.999 36.284 11.9071 36.2778 11.8164 36.2621C11.2732 36.1827 10.7537 35.9699 10.306 35.6547C10.0687 35.4959 9.84959 35.3085 9.65961 35.0933C9.30882 34.7058 9.04475 34.2382 8.89339 33.7363C8.86454 33.6486 8.84506 33.5585 8.82561 33.4685C8.81743 33.4307 8.80925 33.3928 8.80038 33.3552C8.78622 33.2849 8.77569 33.2231 8.76523 33.1617C8.7588 33.124 8.7524 33.0864 8.7452 33.0471L8.63956 32.4436L7.79531 27.6167L5.76705 16.0216C5.76705 16.0216 5.73552 15.7254 5.69216 15.2688L5.65354 15.0497C5.64421 14.9937 5.63465 14.9407 5.62507 14.8875C5.59901 14.743 5.57275 14.5972 5.55027 14.3882C5.5362 14.2994 5.53514 14.2094 5.53406 14.1194C5.53358 14.0783 5.53309 14.0371 5.53136 13.996C5.53022 13.9018 5.53845 13.8076 5.54669 13.7135C5.54991 13.6766 5.55313 13.6398 5.55579 13.6029C5.61728 13.0813 5.80174 12.5771 6.08 12.1348C6.35905 11.6941 6.73112 11.309 7.17493 11.0327C7.39723 10.8961 7.63135 10.7762 7.87808 10.6928L8.06333 10.6301C8.10842 10.6163 8.15435 10.6058 8.2002 10.5954C8.21767 10.5914 8.23512 10.5874 8.25252 10.5833L8.44171 10.5412L8.59148 10.515L8.80274 10.4777C8.81929 10.4602 8.87605 10.4086 8.90916 10.3967L11.4616 9.94407L16.2536 9.09367L18.6492 8.66806L19.8474 8.45526L20.147 8.40206L20.1848 8.39571L20.2329 8.38936L20.3298 8.37665L20.523 8.35284C20.6523 8.34648 20.7831 8.34251 20.9132 8.3441C20.9514 8.34737 20.9897 8.34994 21.0279 8.35252C21.1199 8.35873 21.2118 8.36492 21.3026 8.38062C21.8457 8.46003 22.3652 8.67283 22.8129 8.98806C23.0502 9.14686 23.2694 9.33425 23.4593 9.54944C23.8101 9.93692 24.0742 10.4046 24.2256 10.9064C24.2544 10.9942 24.2739 11.0842 24.2933 11.1742C24.3015 11.2121 24.3097 11.2499 24.3186 11.2876C24.3327 11.3578 24.3432 11.4196 24.3537 11.4809C24.3601 11.5187 24.3665 11.5563 24.3738 11.5956ZM22.2509 20.126C22.5536 20.9883 22.8516 22.2341 23.1425 23.865C23.1937 24.1501 23.2252 24.4074 23.2394 24.64L23.0439 25.7564C22.9178 25.9113 22.7294 26.0129 22.4748 26.0589C22.1319 26.1209 21.9222 25.9335 21.8441 25.496L21.4595 22.9995C20.9266 20.0172 19.89 18.665 18.3505 18.9444C17.8633 19.0326 17.5519 19.2668 17.4163 19.6472C17.2658 20.099 17.2114 20.5532 17.2524 21.0113C17.3415 21.8165 17.4447 22.5438 17.5606 23.1933L18.0754 26.0764C18.1132 26.2884 18.0399 26.4861 17.8554 26.6703C17.671 26.8546 17.4668 26.9665 17.2429 27.007C16.9528 27.0594 16.7345 26.9014 16.5871 26.5306L15.9115 22.404C15.6506 20.9462 15.2454 20.0823 14.6944 19.8123C14.4272 19.6829 14.0527 19.6615 13.5727 19.7488C13.0918 19.8353 12.7686 20.0791 12.6023 20.4785C12.436 20.8787 12.4241 21.4758 12.566 22.2714L13.3449 25.9486C13.549 27.0888 13.3417 27.7145 12.7229 27.8264C12.3808 27.8884 12.1427 27.7328 12.0079 27.3604C11.5294 24.6829 10.9453 22.3254 10.2556 20.2879C10.2083 20.0227 10.2611 19.7671 10.414 19.5201C10.5669 19.274 10.7648 19.1287 11.0084 19.0842C11.2512 19.0397 11.4577 19.1461 11.6256 19.4034C11.9969 18.6657 12.5905 18.2227 13.4063 18.075C14.4461 17.8868 15.3392 18.2457 16.0849 19.1501C16.5721 18.0766 17.3596 17.4414 18.4451 17.2444C19.5305 17.0475 20.4213 17.3373 21.1173 18.1147C21.5698 18.5935 21.9474 19.2644 22.2509 20.126Z" fill="#FFCA99"/>
<path fill-rule="evenodd" clip-rule="evenodd" d="M41.7875 15.3634C41.957 15.5944 42.0989 15.8462 42.2045 16.1137H42.2053C42.4032 16.5981 42.493 17.1293 42.4647 17.6526C42.4613 17.7442 42.4492 17.8351 42.437 17.9258C42.4318 17.9647 42.4266 18.0036 42.4221 18.0424C42.4047 18.1576 42.3866 18.2473 42.3693 18.3513L42.2636 18.9548L41.4186 23.7809L39.3872 35.3753C39.3872 35.3753 39.3162 35.6643 39.202 36.1082L39.1633 36.3273C39.1523 36.3863 39.1427 36.4425 39.1331 36.499C39.1088 36.641 39.0841 36.7855 39.0356 36.9848C39.0182 37.0736 38.9884 37.1594 38.9586 37.245C38.9453 37.2834 38.9319 37.3218 38.9197 37.3603C38.8899 37.4472 38.8512 37.5309 38.8125 37.6145C38.796 37.6501 38.7794 37.6858 38.7637 37.7216C38.528 38.1909 38.1835 38.6014 37.772 38.9206C37.3605 39.239 36.8797 39.4717 36.3689 39.5789C36.1134 39.6305 35.8525 39.6622 35.5924 39.6559L35.3969 39.6503C35.3315 39.6464 35.2676 39.636 35.203 39.6289L35.0114 39.6035L34.8616 39.5765L34.6504 39.5392C34.6283 39.5503 34.5574 39.5789 34.5227 39.5789L31.9702 39.1247L27.179 38.2735L24.7834 37.8479L23.5852 37.6351L23.2857 37.5819L23.2478 37.5747L23.2005 37.5644L23.1051 37.543L22.9152 37.4985C22.7914 37.4604 22.6669 37.4183 22.5455 37.3723C22.512 37.3567 22.4782 37.3418 22.4444 37.3267C22.3588 37.2887 22.2729 37.2506 22.1915 37.2039C21.7083 36.9419 21.2921 36.5631 20.9783 36.1129C20.8089 35.8819 20.667 35.6302 20.5613 35.3626C20.3635 34.8782 20.2736 34.347 20.302 33.8237C20.3053 33.7321 20.3175 33.6412 20.3297 33.5505C20.3349 33.5116 20.3401 33.4727 20.3446 33.4339C20.3619 33.3187 20.38 33.229 20.3974 33.125L20.503 32.5215L21.3481 27.6954L23.3787 16.101C23.3787 16.101 23.4496 15.812 23.5639 15.3681L23.6026 15.149C23.6136 15.09 23.6232 15.0338 23.6328 14.9773C23.6571 14.8353 23.6818 14.6909 23.7303 14.4915C23.7477 14.4027 23.7775 14.3169 23.8072 14.2313C23.8206 14.1929 23.8339 14.1546 23.8461 14.116C23.876 14.0291 23.9147 13.9454 23.9534 13.8619C23.9699 13.8262 23.9864 13.7905 24.0022 13.7547C24.2379 13.2854 24.5824 12.8749 24.9939 12.5557C25.4054 12.2373 25.8862 12.0046 26.397 11.8975C26.6524 11.8458 26.9133 11.8141 27.1735 11.8204L27.369 11.826C27.4344 11.83 27.4983 11.8403 27.5629 11.8474L27.7545 11.8728L27.9042 11.8998L28.1155 11.9372C28.1376 11.926 28.2085 11.8975 28.2432 11.8975L30.7957 12.3516L35.5869 13.2028L37.9825 13.6284L39.1807 13.8412L39.4802 13.8944L39.5181 13.9016L39.5653 13.9119L39.6607 13.9333L39.8507 13.9778C39.9745 14.0159 40.099 14.058 40.2204 14.1041C40.2539 14.1196 40.2876 14.1345 40.3214 14.1496C40.4071 14.1876 40.493 14.2257 40.5743 14.2724C41.0576 14.5344 41.4738 14.9132 41.7875 15.3634ZM40.6264 18.919L40.8337 17.7336L40.8329 17.7343C40.8818 17.4493 40.8676 17.1587 40.7927 16.8824C40.7367 16.6759 40.6477 16.479 40.5302 16.2995C40.5026 16.2614 40.4758 16.2225 40.4459 16.186C40.2614 15.966 40.0289 15.7906 39.7711 15.6715L39.6741 15.6262L39.5724 15.5929C39.5385 15.5825 39.5054 15.5674 39.4707 15.5595L39.3659 15.5357C39.3193 15.5222 39.2386 15.5082 39.1581 15.494C39.1392 15.4907 39.1203 15.4874 39.1018 15.4841L38.807 15.4317L29.3846 13.7579L28.2069 13.549L27.6181 13.4442L27.473 13.4188L27.3666 13.4061C27.3004 13.3934 27.2328 13.3927 27.1657 13.3919L27.1538 13.3918C26.87 13.3886 26.5846 13.445 26.3261 13.5673C26.0675 13.688 25.835 13.8658 25.6497 14.0834C25.4645 14.301 25.325 14.5574 25.2516 14.8354L25.228 14.941L25.2154 14.9934L25.2091 15.0204L25.2028 15.0577L25.1507 15.3546L25.0467 15.9478L24.6313 18.3203L22.9696 27.8114L22.1387 32.5565L21.9314 33.742C21.8825 34.027 21.8967 34.3176 21.9716 34.5939C22.0276 34.7996 22.1166 34.9973 22.2341 35.1768C22.2617 35.2157 22.2885 35.2538 22.3184 35.2903C22.5037 35.5103 22.7362 35.6857 22.994 35.8048L23.091 35.8501L23.1926 35.8835C23.2265 35.8938 23.2596 35.9089 23.2943 35.9168L23.3992 35.9406C23.4447 35.9538 23.5227 35.9675 23.6013 35.9813C23.6221 35.9849 23.643 35.9886 23.6633 35.9922L23.9581 36.0446L33.3804 37.7184L34.5582 37.9273L35.147 38.0321L35.292 38.0575L35.3985 38.0702C35.4647 38.0829 35.5323 38.0837 35.5994 38.0844L35.6113 38.0845C35.8951 38.0877 36.1804 38.0313 36.439 37.909C36.6976 37.7883 36.9301 37.6105 37.1154 37.3929C37.3006 37.1753 37.4401 36.9189 37.5134 36.6409L37.5371 36.5353L37.5497 36.4829L37.556 36.4559L37.5623 36.4186L37.6143 36.1217L37.7184 35.5285L38.1338 33.156L39.7955 23.6649L40.6264 18.919ZM32.0151 22.5938C32.8372 21.7529 33.7926 21.4274 34.8797 21.6163L34.8758 21.6124C35.9628 21.8014 36.7014 22.381 37.0916 23.3513C37.3541 23.9579 37.481 24.7186 37.474 25.6325C37.4661 26.5473 37.3226 27.8209 37.0428 29.4534C36.934 30.091 36.7826 30.5738 36.5911 30.9025C36.3987 31.2312 36.0921 31.3583 35.6703 31.2852C35.3275 31.2257 35.1942 30.9771 35.2691 30.5388L35.7555 28.0607C36.2679 25.0743 35.7531 23.4474 34.2112 23.179C33.7241 23.094 33.352 23.2076 33.095 23.518C32.8002 23.8904 32.5945 24.2986 32.4778 24.7432C32.2886 25.5309 32.138 26.2495 32.0269 26.8998L31.5318 29.7869C31.4956 29.9997 31.3592 30.1601 31.1235 30.2697C30.8878 30.3792 30.6576 30.4142 30.4338 30.3753C30.1445 30.3245 29.9923 30.0997 29.9797 29.7011L30.7459 25.5905C30.9966 24.131 30.9083 23.179 30.4826 22.7359C30.2753 22.5223 29.9308 22.3731 29.45 22.2897C28.9691 22.2055 28.5821 22.323 28.2904 22.6414C27.998 22.9598 27.7836 23.5173 27.6472 24.3137L27.1308 28.0377C26.9346 29.1795 26.527 29.6964 25.9082 29.5884C25.5653 29.5288 25.3943 29.3017 25.3943 28.9047C25.8546 26.2241 26.1061 23.8079 26.1494 21.6553C26.1952 21.39 26.3315 21.1677 26.5593 20.9883C26.7864 20.8096 27.0221 20.7413 27.2664 20.7834C27.5108 20.8263 27.6677 20.997 27.7386 21.2964C28.3377 20.731 29.0456 20.519 29.8631 20.6611C30.9036 20.8422 31.6209 21.4869 32.0151 22.5938Z" fill="white"/>
</g>
</g>
<defs>
<filter id="filter0_d_101_468" x="-24.4688" y="-14.6562" width="96.9385" height="91.3129" filterUnits="userSpaceOnUse" color-interpolation-filters="sRGB">
<feFlood flood-opacity="0" result="BackgroundImageFix"/>
<feColorMatrix in="SourceAlpha" type="matrix" values="0 0 0 0 0 0 0 0 0 0 0 0 0 0 0 0 0 0 127 0" result="hardAlpha"/>
<feOffset dy="7"/>
<feGaussianBlur stdDeviation="15"/>
<feComposite in2="hardAlpha" operator="out"/>
<feColorMatrix type="matrix" values="0 0 0 0 0 0 0 0 0 0 0 0 0 0 0 0 0 0 0.15 0"/>
<feBlend mode="normal" in2="BackgroundImageFix" result="effect1_dropShadow_101_468"/>
<feBlend mode="normal" in="SourceGraphic" in2="effect1_dropShadow_101_468" result="shape"/>
</filter>
<linearGradient id="paint0_linear_101_468" x1="5.22565e-07" y1="9.98437" x2="48" y2="34.8281" gradientUnits="userSpaceOnUse">
<stop stop-color="#D66526"/>
<stop offset="0.484375" stop-color="#F99532"/>
<stop offset="0.989583" stop-color="#FFAC59"/>
</linearGradient>
<radialGradient id="paint1_radial_101_468" cx="0" cy="0" r="1" gradientUnits="userSpaceOnUse" gradientTransform="translate(24 24) rotate(90) scale(24)">
<stop stop-color="#FF6500"/>
<stop offset="1" stop-color="#F99532" stop-opacity="0"/>
</radialGradient>
<linearGradient id="paint2_linear_101_468" x1="45.1406" y1="1.54687" x2="29.2969" y2="30.375" gradientUnits="userSpaceOnUse">
<stop stop-color="white"/>
<stop offset="1" stop-color="#DA6E2E" stop-opacity="0"/>
</linearGradient>
<clipPath id="clip0_101_468">
<rect width="48" height="48" fill="white"/>
</clipPath>
</defs>
</svg>
