<svg width="144" height="144" viewBox="0 0 144 144" fill="none" xmlns="http://www.w3.org/2000/svg">
<g clip-path="url(#clip0_101_465)">
<path d="M0 23.9062C0 10.7032 10.7032 0 23.9062 0H120.094C133.297 0 144 10.7032 144 23.9062V120.094C144 133.297 133.297 144 120.094 144H23.9062C10.7032 144 0 133.297 0 120.094V23.9062Z" fill="url(#paint0_linear_101_465)"/>
<path d="M0 23.9062C0 10.7032 10.7032 0 23.9062 0H120.094C133.297 0 144 10.7032 144 23.9062V120.094C144 133.297 133.297 144 120.094 144H23.9062C10.7032 144 0 133.297 0 120.094V23.9062Z" fill="url(#paint1_radial_101_465)" fill-opacity="0.5"/>
<path d="M0 23.9062C0 10.7032 10.7032 0 23.9062 0H120.094C133.297 0 144 10.7032 144 23.9062V120.094C144 133.297 133.297 144 120.094 144H23.9062C10.7032 144 0 133.297 0 120.094V23.9062Z" fill="url(#paint2_linear_101_465)" fill-opacity="0.2"/>
<g filter="url(#filter0_d_101_465)">
<path fill-rule="evenodd" clip-rule="evenodd" d="M73.1213 34.7869L73.4381 36.5973H73.4311L74.9327 45.18C74.8098 45.4539 74.6986 45.7326 74.6229 46.0256L74.552 46.3424L74.5142 46.4996L74.4952 46.5806L74.4763 46.6926L74.3202 47.5835L74.0081 49.3629L72.7618 56.4806L72.3716 58.715L71.2719 52.4263L68.7794 38.1886L68.1574 34.6321C68.0037 33.7793 67.6679 32.9742 67.176 32.2715C66.8095 31.7474 66.3554 31.2829 65.8422 30.8994C65.819 30.8837 65.796 30.8678 65.7729 30.852C65.6806 30.7887 65.5882 30.7255 65.4899 30.6683C64.7473 30.2395 63.9101 29.9847 63.0635 29.9156L62.7443 29.887L62.425 29.8965C62.3812 29.8995 62.3374 29.8996 62.2936 29.8997C62.231 29.8999 62.1684 29.9 62.1058 29.9084L61.7865 29.9513C61.6277 29.9618 61.3546 30.0114 61.0925 30.0589C61.0579 30.0652 61.0235 30.0714 60.9895 30.0776L60.1051 30.2348L31.8379 35.2562L28.3048 35.8827L26.5383 36.1971L26.1032 36.2757L25.791 36.3496C25.5895 36.3834 25.3986 36.4514 25.2082 36.5192L25.1761 36.5306C24.3721 36.8165 23.6271 37.2691 23.0217 37.8813C22.4163 38.4911 21.941 39.2319 21.6407 40.0371C21.3427 40.8422 21.2079 41.7069 21.2859 42.5668L21.3285 42.8884L21.3474 43.0504L21.3569 43.1338L21.3758 43.2457L21.5319 44.1366L21.844 45.916L23.0903 53.0337L28.0754 81.5068L30.568 95.7445L31.19 99.3009C31.3437 100.154 31.6795 100.959 32.1714 101.662C32.5379 102.186 32.992 102.65 33.5052 103.034C33.5283 103.049 33.5514 103.065 33.5744 103.081C33.6668 103.144 33.7591 103.208 33.8575 103.265C34.6001 103.693 35.4373 103.948 36.2839 104.017L36.6031 104.046L36.9224 104.037C36.9662 104.034 37.01 104.033 37.0538 104.033C37.1164 104.033 37.179 104.033 37.2416 104.025L37.5609 103.982C37.7197 103.971 37.9929 103.922 38.255 103.874C38.2896 103.868 38.3239 103.862 38.3579 103.855L39.2423 103.698L65.3149 99.0675L65.2936 99.1914L64.6716 102.748C64.5912 103.217 64.5723 103.691 64.6054 104.16L50.596 106.647L43.4092 107.924L39.8146 108.562L38.916 108.722L38.8024 108.741L38.6582 108.76L38.3673 108.798L37.7879 108.87C37.4001 108.889 37.0075 108.901 36.6173 108.896C36.5027 108.886 36.3879 108.878 36.2731 108.871C35.9971 108.852 35.7213 108.833 35.4491 108.786C33.8197 108.548 32.2612 107.91 30.918 106.964C30.2062 106.488 29.5488 105.926 28.9788 105.28C27.9265 104.118 27.1342 102.714 26.6802 101.209C26.5936 100.946 26.5352 100.676 26.4769 100.406C26.4523 100.292 26.4277 100.178 26.4011 100.066C26.3587 99.8547 26.3271 99.6693 26.2957 99.4852C26.2764 99.372 26.2572 99.2593 26.2356 99.1413L25.9187 97.331L23.3859 82.8503L17.3012 48.0647C17.3012 48.0647 17.2066 47.1762 17.0765 45.8065L16.9606 45.149C16.9326 44.9812 16.904 44.8221 16.8752 44.6626C16.7971 44.2289 16.7182 43.7917 16.6508 43.1647C16.6086 42.8982 16.6054 42.6284 16.6022 42.3582C16.6007 42.2348 16.5993 42.1113 16.5941 41.988C16.5907 41.7055 16.6154 41.4229 16.6401 41.1404C16.6497 41.0299 16.6594 40.9194 16.6674 40.8088C16.8518 39.2438 17.4052 37.7312 18.24 36.4044C19.0772 35.0823 20.1934 33.927 21.5248 33.098C22.1917 32.6883 22.894 32.3286 23.6342 32.0785L24.19 31.8903C24.3252 31.8489 24.4629 31.8175 24.6004 31.7862C24.6529 31.7742 24.7053 31.7623 24.7576 31.7498L25.3251 31.6235L25.7744 31.5449L26.4082 31.433C26.4579 31.3806 26.6282 31.2257 26.7275 31.19L34.3849 29.8322L48.7609 27.281L55.9477 26.0042L59.5422 25.3658L60.4409 25.2062L60.5544 25.1871L60.6987 25.1681L60.9895 25.13L61.5689 25.0585C61.9568 25.0394 62.3493 25.0275 62.7395 25.0323C62.8542 25.0421 62.969 25.0498 63.0838 25.0576C63.3598 25.0762 63.6356 25.0948 63.9078 25.1419C65.5372 25.3801 67.0956 26.0185 68.4388 26.9642C69.1507 27.4406 69.8081 28.0028 70.378 28.6483C71.4304 29.8108 72.2226 31.2138 72.6767 32.7193C72.7632 32.9825 72.8216 33.2528 72.88 33.5226C72.9046 33.6362 72.9291 33.7498 72.9557 33.8627C72.9982 34.0736 73.0298 34.2589 73.0611 34.443C73.0804 34.5562 73.0996 34.669 73.1213 34.7869ZM66.7527 60.3779C67.6608 62.9648 68.5547 66.7023 69.4274 71.5951C69.5811 72.4503 69.6757 73.2221 69.7182 73.92L69.1318 77.2693C68.7534 77.7338 68.1882 78.0387 67.4243 78.1768C66.3956 78.3626 65.7666 77.8005 65.5324 76.4879L64.3784 68.9987C62.7798 60.0516 59.67 55.9949 55.0514 56.8334C53.5899 57.0978 52.6558 57.8005 52.249 58.9415C51.7974 60.2969 51.6342 61.6595 51.7572 63.0339C52.0244 65.4494 52.3342 67.6313 52.6818 69.5799L54.2261 78.2292C54.3396 78.8653 54.1196 79.4584 53.5663 80.011C53.0129 80.5637 52.4004 80.8996 51.7288 81.021C50.8585 81.1783 50.2034 80.7042 49.7612 79.5918L47.7345 67.2121C46.9518 62.8386 45.7362 60.2469 44.0832 59.437C43.2815 59.0487 42.1582 58.9844 40.718 59.2464C39.2754 59.5061 38.3058 60.2374 37.8069 61.4355C37.3079 62.6361 37.2724 64.4274 37.6981 66.8143L40.0346 77.8457C40.6471 81.2664 40.0251 83.1435 38.1687 83.4794C37.1423 83.6652 36.4281 83.1983 36.0238 82.0811C34.5883 74.0487 32.8359 66.9763 30.7667 60.8638C30.6248 60.0682 30.7832 59.3012 31.242 58.5604C31.7008 57.8219 32.2944 57.386 33.0251 57.2526C33.7535 57.1192 34.3731 57.4384 34.8768 58.2102C35.9906 55.9972 37.7714 54.668 40.219 54.225C43.3383 53.6604 46.0176 54.7371 48.2548 57.4503C49.7163 54.2297 52.0788 52.3241 55.3352 51.7333C58.5916 51.1426 61.2639 52.012 63.352 54.3441C64.7095 55.7805 65.8422 57.7933 66.7527 60.3779Z" fill="#FFCA99"/>
<path fill-rule="evenodd" clip-rule="evenodd" d="M125.364 46.0902C125.872 46.7834 126.298 47.5385 126.615 48.3412H126.617C127.21 49.7943 127.48 51.3879 127.395 52.9577C127.385 53.2326 127.348 53.5052 127.312 53.777C127.296 53.8939 127.281 54.0106 127.267 54.1273C127.235 54.3396 127.202 54.5232 127.17 54.7056C127.149 54.8199 127.129 54.9337 127.109 55.0539L126.792 56.8643L124.257 71.3426L118.163 106.126C118.163 106.126 117.95 106.993 117.607 108.324L117.491 108.982C117.458 109.159 117.429 109.328 117.4 109.497C117.327 109.923 117.253 110.357 117.108 110.954C117.056 111.221 116.966 111.478 116.877 111.735C116.837 111.85 116.797 111.965 116.76 112.081C116.671 112.342 116.554 112.593 116.438 112.843C116.389 112.95 116.339 113.057 116.292 113.165C115.585 114.573 114.551 115.804 113.317 116.762C112.082 117.717 110.64 118.415 109.108 118.737C108.341 118.891 107.559 118.987 106.778 118.968L106.192 118.951C106.061 118.943 105.932 118.927 105.803 118.91C105.739 118.902 105.675 118.894 105.61 118.887L105.035 118.81L104.586 118.729L103.952 118.617C103.886 118.651 103.673 118.737 103.569 118.737L95.9116 117.374L81.538 114.82L74.3512 113.544L70.7566 112.905L69.858 112.746L69.7444 112.724L69.6026 112.693L69.3164 112.629L68.7465 112.496C68.3752 112.381 68.0016 112.255 67.6374 112.117C67.5369 112.07 67.4356 112.025 67.3341 111.98C67.0772 111.866 66.8197 111.752 66.5755 111.612C65.1259 110.826 63.8772 109.689 62.936 108.339C62.4276 107.646 62.0019 106.89 61.685 106.088C61.0914 104.635 60.8218 103.041 60.907 101.471C60.9169 101.196 60.9534 100.924 60.9899 100.652C61.0055 100.535 61.0212 100.418 61.0347 100.302C61.0667 100.089 61.0995 99.9057 61.1322 99.7233C61.1527 99.609 61.1731 99.4952 61.1931 99.375L61.51 97.5646L64.0451 83.0863L70.137 48.3031C70.137 48.3031 70.3499 47.436 70.6928 46.1045L70.8086 45.447C70.8417 45.2698 70.8705 45.1013 70.8995 44.9317C70.9722 44.5059 71.0463 44.0725 71.1917 43.4746C71.244 43.2081 71.3335 42.9508 71.4228 42.6938C71.4628 42.5787 71.5028 42.4636 71.5394 42.3479C71.6289 42.0874 71.7451 41.8363 71.8612 41.5856C71.9107 41.4786 71.9602 41.3716 72.0076 41.2641C72.7147 39.8563 73.7482 38.6247 74.9826 37.6671C76.2171 36.7119 77.6596 36.014 79.1921 35.6924C79.9583 35.5375 80.741 35.4422 81.5214 35.4613L82.1079 35.478C82.2388 35.4859 82.3675 35.5023 82.4963 35.5187C82.5607 35.5269 82.625 35.5351 82.6897 35.5423L83.2643 35.6185L83.7137 35.6995L84.3474 35.8115C84.4137 35.7781 84.6265 35.6924 84.7306 35.6924L92.388 37.0549L106.762 39.6085L113.948 40.8853L117.543 41.5237L118.442 41.6833L118.555 41.7047L118.697 41.7357L118.983 41.8L119.553 41.9334C119.924 42.0478 120.298 42.174 120.662 42.3122C120.763 42.3587 120.864 42.4037 120.965 42.4487C121.222 42.5628 121.48 42.6771 121.724 42.8172C123.174 43.6033 124.422 44.7395 125.364 46.0902ZM121.88 56.7571L122.502 53.2007L122.5 53.2031C122.646 52.3479 122.604 51.4761 122.379 50.6471C122.211 50.0277 121.944 49.437 121.592 48.8986C121.574 48.8737 121.556 48.8486 121.538 48.8235C121.473 48.7336 121.409 48.6436 121.339 48.558C120.785 47.8982 120.088 47.3717 119.314 47.0144L119.023 46.8786L118.718 46.7786C118.678 46.7663 118.638 46.7519 118.598 46.7373C118.537 46.7152 118.476 46.6929 118.413 46.6785L118.099 46.6071C117.962 46.5675 117.728 46.5265 117.493 46.4852C117.43 46.4742 117.367 46.4632 117.306 46.4522L116.422 46.295L88.1549 41.2736L84.6218 40.6471L82.8552 40.3327L82.4201 40.2564L82.1008 40.2183C81.9021 40.1801 81.6992 40.178 81.4981 40.1758L81.4623 40.1754C80.611 40.1659 79.7549 40.335 78.9792 40.7019C78.2035 41.064 77.5059 41.5976 76.9502 42.2502C76.3944 42.9029 75.9758 43.6723 75.7559 44.5061L75.685 44.8229L75.6471 44.9801L75.6282 45.0611L75.6093 45.1731L75.4532 46.064L75.1411 47.8434L73.8948 54.961L68.9097 83.4341L66.4171 97.6694L65.7951 101.226C65.6485 102.081 65.6911 102.953 65.9157 103.782C66.0836 104.399 66.3509 104.992 66.7032 105.53L66.7154 105.547C66.7939 105.658 66.8708 105.767 66.9563 105.871C67.512 106.531 68.2097 107.057 68.983 107.415L69.2738 107.55L69.5789 107.65C69.6191 107.663 69.659 107.677 69.6989 107.692C69.7599 107.714 69.8211 107.736 69.884 107.75L70.1985 107.822C70.3349 107.861 70.5688 107.902 70.8045 107.944C70.8671 107.955 70.9297 107.966 70.9907 107.977L71.8752 108.134L100.142 113.155L103.675 113.782L105.442 114.096L105.877 114.173L106.196 114.211C106.395 114.249 106.598 114.251 106.799 114.253L106.835 114.253C107.686 114.263 108.542 114.094 109.318 113.727C110.094 113.365 110.791 112.831 111.347 112.179C111.903 111.526 112.321 110.757 112.541 109.923L112.612 109.606L112.65 109.449L112.669 109.368L112.688 109.256L112.844 108.365L113.156 106.586L114.402 99.4679L119.388 70.9949L121.88 56.7571ZM96.0462 67.7814C98.5127 65.2588 101.379 64.2821 104.64 64.8491L104.628 64.8372C107.889 65.4041 110.105 67.143 111.276 70.0539C112.063 71.8738 112.444 74.1559 112.423 76.8977C112.399 79.6418 111.969 83.4627 111.129 88.3602C110.803 90.2731 110.349 91.7214 109.774 92.7076C109.197 93.6937 108.277 94.0749 107.012 93.8557C105.983 93.6771 105.584 92.9315 105.808 91.6166L107.267 84.1821C108.805 75.2231 107.26 70.3422 102.635 69.537C101.173 69.2821 100.057 69.6228 99.286 70.5542C98.4016 71.6714 97.7844 72.8958 97.4344 74.2297C96.8668 76.5928 96.4151 78.7485 96.0817 80.6995L94.5965 89.3607C94.4877 89.9991 94.0786 90.4803 93.3715 90.809C92.6644 91.1378 91.9739 91.2426 91.3023 91.1258C90.4344 90.9734 89.978 90.2993 89.9401 89.1035L92.2388 76.7714C92.9908 72.3931 92.7259 69.537 91.4489 68.2078C90.8269 67.567 89.7935 67.1192 88.3509 66.8691C86.9084 66.6166 85.7472 66.9691 84.8722 67.9243C83.9949 68.8796 83.3516 70.5518 82.9425 72.941L81.3935 84.113C80.8047 87.5384 79.582 89.0892 77.7256 88.7652C76.6969 88.5865 76.1837 87.9053 76.1837 86.7142C77.5648 78.6723 78.3192 71.4236 78.4493 64.9658C78.5864 64.1702 78.9956 63.5032 79.679 62.9648C80.3601 62.4289 81.0672 62.224 81.8003 62.3503C82.5334 62.4789 83.004 62.9911 83.2168 63.8891C85.0141 62.1931 87.1378 61.557 89.5901 61.9834C92.7117 62.5265 94.8638 64.4608 96.0462 67.7814Z" fill="white"/>
</g>
</g>
<defs>
<filter id="filter0_d_101_465" x="-13.4062" y="2.03125" width="170.816" height="153.939" filterUnits="userSpaceOnUse" color-interpolation-filters="sRGB">
<feFlood flood-opacity="0" result="BackgroundImageFix"/>
<feColorMatrix in="SourceAlpha" type="matrix" values="0 0 0 0 0 0 0 0 0 0 0 0 0 0 0 0 0 0 127 0" result="hardAlpha"/>
<feOffset dy="7"/>
<feGaussianBlur stdDeviation="15"/>
<feComposite in2="hardAlpha" operator="out"/>
<feColorMatrix type="matrix" values="0 0 0 0 0 0 0 0 0 0 0 0 0 0 0 0 0 0 0.15 0"/>
<feBlend mode="normal" in2="BackgroundImageFix" result="effect1_dropShadow_101_465"/>
<feBlend mode="normal" in="SourceGraphic" in2="effect1_dropShadow_101_465" result="shape"/>
</filter>
<linearGradient id="paint0_linear_101_465" x1="1.56769e-06" y1="29.9531" x2="144" y2="104.484" gradientUnits="userSpaceOnUse">
<stop stop-color="#D66526"/>
<stop offset="0.484375" stop-color="#F99532"/>
<stop offset="0.989583" stop-color="#FFAC59"/>
</linearGradient>
<radialGradient id="paint1_radial_101_465" cx="0" cy="0" r="1" gradientUnits="userSpaceOnUse" gradientTransform="translate(72 72) rotate(90) scale(72)">
<stop stop-color="#FF6500"/>
<stop offset="1" stop-color="#F99532" stop-opacity="0"/>
</radialGradient>
<linearGradient id="paint2_linear_101_465" x1="135.422" y1="4.64061" x2="87.8906" y2="91.125" gradientUnits="userSpaceOnUse">
<stop stop-color="white"/>
<stop offset="1" stop-color="#DA6E2E" stop-opacity="0"/>
</linearGradient>
<clipPath id="clip0_101_465">
<rect width="144" height="144" fill="white"/>
</clipPath>
</defs>
</svg>
