<svg width="284" height="284" viewBox="0 0 284 284" fill="none" xmlns="http://www.w3.org/2000/svg">
<g clip-path="url(#clip0_101_462)">
<path d="M0 47.1484C0 21.1091 21.1091 0 47.1484 0H236.852C262.891 0 284 21.1091 284 47.1484V236.852C284 262.891 262.891 284 236.852 284H47.1484C21.1091 284 0 262.891 0 236.852V47.1484Z" fill="url(#paint0_linear_101_462)"/>
<path d="M0 47.1484C0 21.1091 21.1091 0 47.1484 0H236.852C262.891 0 284 21.1091 284 47.1484V236.852C284 262.891 262.891 284 236.852 284H47.1484C21.1091 284 0 262.891 0 236.852V47.1484Z" fill="url(#paint1_radial_101_462)" fill-opacity="0.5"/>
<path d="M0 47.1484C0 21.1091 21.1091 0 47.1484 0H236.852C262.891 0 284 21.1091 284 47.1484V236.852C284 262.891 262.891 284 236.852 284H47.1484C21.1091 284 0 262.891 0 236.852V47.1484Z" fill="url(#paint2_linear_101_462)" fill-opacity="0.2"/>
<g filter="url(#filter0_d_101_462)">
<path fill-rule="evenodd" clip-rule="evenodd" d="M144.211 68.6076L144.836 72.178H144.822L147.784 89.1049C147.541 89.6452 147.322 90.1949 147.173 90.7727L147.033 91.3976L146.958 91.7076L146.921 91.8674L146.884 92.0882L146.576 93.8452L145.96 97.3546L143.502 111.392L142.733 115.799L140.564 103.396L135.648 75.3163L134.422 68.3022C134.118 66.6203 133.456 65.0324 132.486 63.6465C131.763 62.6129 130.868 61.6968 129.855 60.9404C129.81 60.9094 129.764 60.8782 129.719 60.847C129.537 60.7223 129.355 60.5975 129.161 60.4847C127.696 59.6391 126.045 59.1364 124.375 59.0002L123.746 58.9438L123.116 58.9626C123.03 58.9684 122.943 58.9686 122.857 58.9688C122.733 58.9692 122.61 58.9695 122.486 58.9861L121.857 59.0706C121.544 59.0914 121.005 59.1891 120.488 59.2829C120.42 59.2953 120.352 59.3076 120.285 59.3196L118.541 59.6297L62.7915 69.5331L55.8234 70.7686L52.3394 71.3888L51.4812 71.5438L50.8656 71.6895C50.4682 71.7562 50.0917 71.8903 49.7163 72.0239C49.6952 72.0315 49.6741 72.039 49.6529 72.0465C48.0672 72.6103 46.598 73.5029 45.404 74.7103C44.21 75.913 43.2725 77.374 42.6802 78.962C42.0925 80.5499 41.8267 82.2553 41.9806 83.9512L42.0646 84.5855L42.1019 84.9049L42.1205 85.0694L42.1578 85.2902L42.4657 87.0472L43.0813 90.5566L45.5393 104.594L55.371 160.749L60.2869 188.829L61.5135 195.844C61.8167 197.525 62.479 199.113 63.4491 200.499C64.172 201.533 65.0675 202.449 66.0796 203.205C66.1253 203.236 66.1708 203.267 66.2164 203.299C66.3984 203.423 66.5805 203.548 66.7746 203.661C68.2391 204.507 69.8901 205.009 71.5599 205.146L72.1895 205.202L72.8191 205.183C72.9056 205.177 72.992 205.177 73.0784 205.177C73.2018 205.177 73.3253 205.176 73.4488 205.16L74.0784 205.075C74.3916 205.054 74.9305 204.957 75.4474 204.863C75.5156 204.85 75.5834 204.838 75.6502 204.826L77.3945 204.516L128.815 195.383L128.773 195.627L127.547 202.642C127.388 203.567 127.351 204.502 127.416 205.427L99.7865 210.332L85.6126 212.85L78.5232 214.109L76.7509 214.424L76.527 214.462L76.2425 214.499L75.6689 214.574L74.5262 214.715C73.7613 214.753 72.987 214.776 72.2175 214.767C71.9914 214.748 71.765 214.732 71.5386 214.717C70.9943 214.681 70.4504 214.644 69.9135 214.551C66.6999 214.081 63.6263 212.822 60.9772 210.957C59.5733 210.017 58.2767 208.909 57.1527 207.635C55.0772 205.343 53.5147 202.576 52.6192 199.607C52.4486 199.088 52.3333 198.554 52.2183 198.022C52.1698 197.798 52.1214 197.574 52.0689 197.352C51.9852 196.936 51.9229 196.57 51.861 196.207C51.8229 195.984 51.785 195.761 51.7424 195.529L51.1174 191.958L46.1223 163.399L34.1217 94.7942C34.1217 94.7942 33.9352 93.0419 33.6786 90.3405L33.4501 89.0439C33.3949 88.7129 33.3384 88.3992 33.2817 88.0847C33.1275 87.2293 32.9721 86.3669 32.8391 85.1304C32.7559 84.6049 32.7496 84.0726 32.7432 83.5399C32.7403 83.2964 32.7374 83.0528 32.7272 82.8096C32.7205 82.2525 32.7692 81.6953 32.8179 81.1382C32.837 80.9201 32.856 80.7021 32.8718 80.4841C33.2356 77.3975 34.3269 74.4143 35.9733 71.7975C37.6244 69.1901 39.8258 66.9116 42.4517 65.2767C43.7669 64.4686 45.1521 63.7592 46.612 63.2659L47.708 62.8948C47.9747 62.8132 48.2463 62.7513 48.5174 62.6895C48.6209 62.6659 48.7243 62.6423 48.8274 62.6176L49.9468 62.3686L50.8329 62.2136L52.0829 61.9928C52.1808 61.8894 52.5166 61.5841 52.7125 61.5136L67.8146 58.8357L96.1672 53.8042L110.341 51.286L117.431 50.027L119.203 49.7122L119.427 49.6746L119.711 49.637L120.285 49.5619L121.428 49.4209C122.192 49.3834 122.967 49.3599 123.736 49.3693C123.962 49.3886 124.189 49.4038 124.415 49.4191C124.96 49.4558 125.503 49.4925 126.04 49.5854C129.254 50.0552 132.327 51.3142 134.977 53.1793C136.38 54.1189 137.677 55.2277 138.801 56.5008C140.877 58.7934 142.439 61.5606 143.335 64.5297C143.505 65.0488 143.62 65.5818 143.736 66.1141C143.784 66.3381 143.832 66.5621 143.885 66.7847C143.969 67.2006 144.031 67.5661 144.093 67.9291C144.131 68.1525 144.169 68.3749 144.211 68.6076ZM131.651 119.079C133.442 124.181 135.205 131.552 136.926 141.202C137.229 142.888 137.416 144.41 137.5 145.787L136.343 152.392C135.597 153.308 134.482 153.91 132.976 154.182C130.947 154.549 129.706 153.44 129.245 150.851L126.968 136.081C123.816 118.435 117.682 110.434 108.574 112.088C105.691 112.609 103.849 113.995 103.047 116.246C102.156 118.919 101.834 121.606 102.077 124.317C102.604 129.081 103.215 133.384 103.9 137.227L106.946 154.285C107.17 155.54 106.736 156.71 105.645 157.8C104.553 158.889 103.345 159.552 102.021 159.791C100.304 160.102 99.0123 159.167 98.1402 156.973L94.1431 132.557C92.5993 123.932 90.202 118.82 86.9418 117.223C85.3607 116.457 83.1453 116.33 80.3049 116.847C77.4599 117.359 75.5476 118.801 74.5635 121.165C73.5794 123.532 73.5095 127.065 74.349 131.773L78.957 153.529C80.165 160.275 78.9384 163.977 75.2771 164.64C73.2529 165.006 71.8444 164.085 71.0469 161.882C68.2158 146.04 64.7597 132.092 60.6787 120.037C60.3989 118.468 60.7114 116.955 61.6162 115.494C62.521 114.038 63.6917 113.178 65.1329 112.915C66.5694 112.652 67.7914 113.281 68.7848 114.803C70.9816 110.439 74.4936 107.818 79.3208 106.944C85.4727 105.83 90.757 107.954 95.1692 113.305C98.0516 106.953 102.711 103.195 109.133 102.03C115.556 100.864 120.826 102.579 124.944 107.179C127.621 110.011 129.856 113.981 131.651 119.079Z" fill="#FFCA99"/>
<path fill-rule="evenodd" clip-rule="evenodd" d="M247.245 90.9C248.248 92.2672 249.087 93.7564 249.712 95.3396H249.717C250.887 98.2054 251.419 101.348 251.251 104.444C251.232 104.987 251.16 105.524 251.088 106.06C251.057 106.291 251.026 106.521 250.999 106.751C250.936 107.17 250.871 107.532 250.807 107.891C250.767 108.117 250.726 108.341 250.687 108.579L250.062 112.149L245.062 140.704L233.043 209.304C233.043 209.304 232.623 211.014 231.947 213.64L231.718 214.937C231.653 215.286 231.596 215.618 231.539 215.953C231.396 216.793 231.249 217.648 230.963 218.827C230.86 219.352 230.683 219.86 230.507 220.366C230.428 220.593 230.349 220.82 230.277 221.049C230.101 221.563 229.871 222.058 229.642 222.552C229.545 222.763 229.447 222.974 229.354 223.186C227.959 225.963 225.921 228.392 223.486 230.28C221.052 232.164 218.207 233.541 215.184 234.175C213.673 234.48 212.129 234.668 210.59 234.631L209.434 234.598C209.175 234.582 208.922 234.55 208.668 234.517C208.541 234.501 208.414 234.485 208.286 234.471L207.153 234.321L206.267 234.161L205.017 233.94C204.886 234.006 204.466 234.175 204.261 234.175L189.159 231.488L160.811 226.451L146.637 223.933L139.548 222.674L137.775 222.359L137.552 222.317L137.272 222.256L136.707 222.129L135.583 221.866C134.851 221.641 134.114 221.392 133.396 221.119C133.198 221.027 132.998 220.939 132.798 220.85C132.291 220.625 131.783 220.399 131.302 220.123C128.443 218.573 125.98 216.332 124.124 213.668C123.121 212.301 122.282 210.812 121.657 209.229C120.486 206.363 119.954 203.22 120.122 200.124C120.142 199.582 120.214 199.044 120.286 198.508C120.316 198.277 120.347 198.047 120.374 197.817C120.437 197.398 120.502 197.037 120.566 196.677C120.607 196.451 120.647 196.227 120.686 195.99L121.311 192.419L126.311 163.865L138.326 95.2645C138.326 95.2645 138.746 93.5544 139.422 90.9282L139.65 89.6316C139.716 89.2821 139.772 88.9498 139.83 88.6151C139.973 87.7755 140.119 86.9207 140.406 85.7416C140.509 85.2161 140.685 84.7086 140.862 84.2019C140.94 83.9748 141.019 83.7478 141.092 83.5195C141.268 83.0057 141.497 82.5104 141.726 82.0157C141.824 81.8048 141.922 81.594 142.015 81.3819C143.41 78.6054 145.448 76.1765 147.882 74.2879C150.317 72.404 153.162 71.0275 156.184 70.3933C157.696 70.0879 159.239 69.9 160.778 69.9376L161.935 69.9704C162.193 69.9861 162.447 70.0185 162.701 70.0508C162.828 70.067 162.955 70.0832 163.082 70.0973L164.216 70.2476L165.102 70.4074L166.352 70.6282C166.483 70.5624 166.902 70.3933 167.108 70.3933L182.21 73.0805L210.558 78.1168L224.732 80.6349L231.821 81.894L233.593 82.2087L233.817 82.251L234.097 82.3121L234.661 82.4389L235.785 82.702C236.518 82.9275 237.254 83.1765 237.973 83.449C238.171 83.5408 238.371 83.6295 238.571 83.7183C239.077 83.9433 239.585 84.1688 240.067 84.445C242.926 85.9953 245.389 88.2363 247.245 90.9ZM240.375 111.938L241.601 104.924L241.597 104.928C241.886 103.242 241.802 101.522 241.359 99.8873C241.028 98.6658 240.501 97.5007 239.806 96.439C239.77 96.3897 239.735 96.3402 239.699 96.2907C239.572 96.1135 239.445 95.9361 239.307 95.7672C238.215 94.4658 236.839 93.4276 235.314 92.7229L234.741 92.4551L234.139 92.2578C234.06 92.2336 233.981 92.205 233.902 92.1764C233.782 92.1327 233.661 92.0888 233.537 92.0604L232.917 91.9195C232.648 91.8416 232.187 91.7607 231.722 91.6792C231.599 91.6575 231.475 91.6358 231.354 91.6141L229.61 91.3041L173.861 81.4007L166.893 80.1651L163.409 79.545L162.551 79.3946L161.921 79.3195C161.529 79.2441 161.129 79.2399 160.732 79.2357C160.709 79.2354 160.685 79.2352 160.662 79.2349C158.983 79.2161 157.294 79.5497 155.765 80.2732C154.235 80.9873 152.859 82.0396 151.763 83.3269C150.667 84.6141 149.841 86.1316 149.408 87.7759L149.268 88.4007L149.193 88.7108L149.156 88.8705L149.118 89.0913L148.811 90.8484L148.195 94.3578L145.737 108.395L135.905 164.551L130.989 192.626L129.763 199.64C129.473 201.327 129.557 203.046 130.001 204.681C130.332 205.898 130.859 207.067 131.554 208.129L131.578 208.163C131.733 208.382 131.884 208.596 132.053 208.801C133.149 210.102 134.525 211.141 136.05 211.845L136.623 212.113L137.225 212.31C137.304 212.335 137.383 212.363 137.462 212.392C137.582 212.436 137.703 212.479 137.827 212.508L138.447 212.649C138.716 212.727 139.177 212.808 139.642 212.889C139.766 212.911 139.889 212.932 140.01 212.954L141.754 213.264L197.503 223.168L204.471 224.403L207.955 225.023L208.813 225.174L209.443 225.249C209.835 225.324 210.235 225.328 210.631 225.333L210.702 225.333C212.381 225.352 214.07 225.019 215.599 224.295C217.129 223.581 218.505 222.529 219.601 221.241C220.697 219.954 221.523 218.437 221.956 216.792L222.096 216.168L222.171 215.857L222.208 215.698L222.246 215.477L222.553 213.72L223.169 210.21L225.627 196.173L235.459 140.018L240.375 111.938ZM189.424 133.68C194.289 128.705 199.942 126.779 206.374 127.897L206.35 127.873C212.782 128.991 217.152 132.421 219.461 138.162C221.014 141.751 221.765 146.252 221.723 151.659C221.676 157.071 220.827 164.607 219.172 174.266C218.528 178.039 217.632 180.895 216.499 182.84C215.361 184.785 213.547 185.537 211.052 185.104C209.023 184.752 208.234 183.281 208.678 180.688L211.555 166.026C214.587 148.357 211.541 138.73 202.418 137.142C199.536 136.64 197.335 137.312 195.814 139.148C194.07 141.352 192.853 143.767 192.162 146.398C191.043 151.058 190.152 155.31 189.494 159.157L186.565 176.239C186.351 177.498 185.544 178.447 184.149 179.096C182.755 179.744 181.393 179.951 180.068 179.72C178.357 179.42 177.457 178.09 177.382 175.732L181.915 151.41C183.399 142.775 182.876 137.142 180.358 134.521C179.131 133.257 177.093 132.374 174.248 131.881C171.403 131.383 169.113 132.078 167.387 133.962C165.657 135.846 164.388 139.144 163.581 143.856L160.526 165.89C159.365 172.645 156.954 175.704 153.292 175.065C151.263 174.712 150.251 173.369 150.251 171.02C152.975 155.159 154.463 140.863 154.719 128.127C154.99 126.558 155.797 125.242 157.145 124.181C158.488 123.124 159.883 122.72 161.328 122.969C162.774 123.222 163.702 124.232 164.122 126.003C167.667 122.659 171.855 121.404 176.692 122.245C182.848 123.316 187.092 127.131 189.424 133.68Z" fill="white"/>
</g>
</g>
<defs>
<filter id="filter0_d_101_462" x="2.72656" y="26.3672" width="278.555" height="245.268" filterUnits="userSpaceOnUse" color-interpolation-filters="sRGB">
<feFlood flood-opacity="0" result="BackgroundImageFix"/>
<feColorMatrix in="SourceAlpha" type="matrix" values="0 0 0 0 0 0 0 0 0 0 0 0 0 0 0 0 0 0 127 0" result="hardAlpha"/>
<feOffset dy="7"/>
<feGaussianBlur stdDeviation="15"/>
<feComposite in2="hardAlpha" operator="out"/>
<feColorMatrix type="matrix" values="0 0 0 0 0 0 0 0 0 0 0 0 0 0 0 0 0 0 0.15 0"/>
<feBlend mode="normal" in2="BackgroundImageFix" result="effect1_dropShadow_101_462"/>
<feBlend mode="normal" in="SourceGraphic" in2="effect1_dropShadow_101_462" result="shape"/>
</filter>
<linearGradient id="paint0_linear_101_462" x1="3.09184e-06" y1="59.0742" x2="284" y2="206.066" gradientUnits="userSpaceOnUse">
<stop stop-color="#D66526"/>
<stop offset="0.484375" stop-color="#F99532"/>
<stop offset="0.989583" stop-color="#FFAC59"/>
</linearGradient>
<radialGradient id="paint1_radial_101_462" cx="0" cy="0" r="1" gradientUnits="userSpaceOnUse" gradientTransform="translate(142 142) rotate(90) scale(142)">
<stop stop-color="#FF6500"/>
<stop offset="1" stop-color="#F99532" stop-opacity="0"/>
</radialGradient>
<linearGradient id="paint2_linear_101_462" x1="267.082" y1="9.15232" x2="173.34" y2="179.719" gradientUnits="userSpaceOnUse">
<stop stop-color="white"/>
<stop offset="1" stop-color="#DA6E2E" stop-opacity="0"/>
</linearGradient>
<clipPath id="clip0_101_462">
<rect width="284" height="284" fill="white"/>
</clipPath>
</defs>
</svg>
