<svg width="512" height="512" viewBox="0 0 512 512" fill="none" xmlns="http://www.w3.org/2000/svg">
<g clip-path="url(#clip0_101_461)">
<path d="M0 85C0 38.0558 38.0558 0 85 0H427C473.944 0 512 38.0558 512 85V427C512 473.944 473.944 512 427 512H85C38.0558 512 0 473.944 0 427V85Z" fill="url(#paint0_linear_101_461)"/>
<path d="M0 85C0 38.0558 38.0558 0 85 0H427C473.944 0 512 38.0558 512 85V427C512 473.944 473.944 512 427 512H85C38.0558 512 0 473.944 0 427V85Z" fill="url(#paint1_radial_101_461)" fill-opacity="0.5"/>
<path d="M0 85C0 38.0558 38.0558 0 85 0H427C473.944 0 512 38.0558 512 85V427C512 473.944 473.944 512 427 512H85C38.0558 512 0 473.944 0 427V85Z" fill="url(#paint2_linear_101_461)" fill-opacity="0.2"/>
<g filter="url(#filter0_d_101_461)">
<path fill-rule="evenodd" clip-rule="evenodd" d="M259.987 123.687L261.113 130.124H261.088L266.428 160.64C265.99 161.614 265.595 162.605 265.326 163.647L265.074 164.773L264.939 165.332L264.872 165.62L264.805 166.018L264.25 169.186L263.14 175.513L258.709 200.82L257.321 208.764L253.411 186.405L244.549 135.782L242.337 123.136C241.791 120.104 240.597 117.241 238.848 114.743C237.545 112.88 235.93 111.228 234.106 109.864C234.023 109.809 233.941 109.752 233.859 109.696C233.531 109.471 233.203 109.246 232.853 109.043C230.213 107.518 227.236 106.612 224.226 106.366L223.091 106.265L221.956 106.299C221.8 106.309 221.644 106.31 221.488 106.31C221.266 106.311 221.043 106.311 220.82 106.341L219.685 106.494C219.121 106.531 218.149 106.707 217.218 106.876C217.095 106.899 216.972 106.921 216.852 106.942L213.707 107.501L113.202 125.355L100.639 127.583L94.3584 128.701L92.8112 128.98L91.7013 129.243C90.9849 129.363 90.3062 129.605 89.6294 129.846C89.5913 129.86 89.5532 129.873 89.5151 129.887C86.6563 130.903 84.0076 132.512 81.8551 134.689C79.7026 136.857 78.0125 139.491 76.9446 142.354C75.8852 145.217 75.4059 148.291 75.6833 151.349L75.8347 152.492L75.902 153.068L75.9356 153.364L76.0029 153.763L76.5578 156.93L77.6677 163.257L82.0989 188.564L99.8238 289.802L108.686 340.425L110.898 353.07C111.444 356.102 112.638 358.965 114.387 361.463C115.69 363.327 117.305 364.978 119.129 366.342C119.212 366.398 119.294 366.454 119.375 366.51C119.704 366.735 120.032 366.96 120.382 367.163C123.023 368.688 125.999 369.594 129.009 369.84L130.144 369.941L131.28 369.908C131.435 369.897 131.591 369.897 131.747 369.896C131.97 369.896 132.192 369.895 132.415 369.865L133.55 369.713C134.115 369.675 135.086 369.499 136.018 369.33C136.141 369.308 136.263 369.286 136.383 369.264L139.528 368.705L232.231 352.24L232.155 352.68L229.944 365.326C229.658 366.994 229.59 368.68 229.708 370.348L179.897 379.19L154.344 383.73L141.563 386L138.368 386.567L137.964 386.635L137.451 386.703L136.417 386.838L134.357 387.092C132.978 387.16 131.582 387.203 130.195 387.186C129.787 387.151 129.379 387.123 128.971 387.096C127.99 387.03 127.009 386.964 126.041 386.796C120.248 385.949 114.707 383.679 109.931 380.317C107.4 378.623 105.062 376.624 103.036 374.329C99.2941 370.196 96.4773 365.207 94.8629 359.854C94.5552 358.918 94.3474 357.957 94.14 356.998C94.0526 356.594 93.9653 356.19 93.8707 355.789C93.7197 355.039 93.6074 354.38 93.4959 353.725C93.4273 353.323 93.359 352.922 93.2821 352.503L92.1554 346.066L83.15 294.579L61.5152 170.897C61.5152 170.897 61.1789 167.737 60.7164 162.867L60.3044 160.53C60.2049 159.933 60.103 159.368 60.0008 158.8C59.7229 157.258 59.4427 155.704 59.2029 153.475C59.0529 152.527 59.0415 151.568 59.03 150.607C59.0248 150.168 59.0196 149.729 59.0011 149.291C58.989 148.286 59.0769 147.282 59.1647 146.277C59.199 145.884 59.2334 145.491 59.2618 145.098C59.9176 139.534 61.8852 134.155 64.8534 129.438C67.8299 124.737 71.7987 120.629 76.5326 117.682C78.9038 116.225 81.4011 114.946 84.0329 114.057L86.0088 113.388C86.4896 113.241 86.9792 113.129 87.468 113.018C87.6546 112.975 87.841 112.933 88.0269 112.888L90.0449 112.439L91.6425 112.16L93.8959 111.762C94.0725 111.575 94.6779 111.025 95.031 110.898L122.257 106.07L173.372 96.9991L198.925 92.4593L211.706 90.1895L214.901 89.622L215.305 89.5543L215.817 89.4865L216.852 89.351L218.912 89.0969C220.291 89.0291 221.686 88.9868 223.074 89.0037C223.481 89.0386 223.89 89.0661 224.298 89.0936C225.279 89.1598 226.26 89.2259 227.228 89.3933C233.021 90.2403 238.562 92.5102 243.338 95.8726C245.869 97.5665 248.207 99.5654 250.233 101.861C253.975 105.994 256.791 110.982 258.406 116.335C258.714 117.271 258.921 118.232 259.129 119.192C259.216 119.596 259.303 119.999 259.398 120.401C259.549 121.151 259.661 121.81 259.773 122.464C259.842 122.867 259.91 123.268 259.987 123.687ZM237.343 214.677C240.572 223.875 243.75 237.164 246.853 254.56C247.399 257.601 247.736 260.345 247.887 262.827L245.802 274.735C244.456 276.387 242.447 277.471 239.731 277.962C236.073 278.623 233.837 276.624 233.004 271.957L228.901 245.329C223.217 213.517 212.16 199.093 195.738 202.074C190.542 203.014 187.221 205.513 185.774 209.57C184.168 214.389 183.588 219.234 184.025 224.121C184.976 232.709 186.077 240.467 187.313 247.395L192.804 278.148C193.207 280.41 192.425 282.519 190.458 284.484C188.49 286.449 186.313 287.643 183.925 288.075C180.83 288.634 178.501 286.948 176.929 282.993L169.723 238.976C166.94 223.426 162.618 214.211 156.74 211.331C153.89 209.951 149.896 209.722 144.775 210.654C139.646 211.577 136.199 214.177 134.424 218.437C132.65 222.706 132.524 229.075 134.038 237.562L142.345 276.785C144.523 288.947 142.311 295.621 135.711 296.815C132.062 297.476 129.522 295.816 128.084 291.844C122.981 263.284 116.75 238.138 109.393 216.405C108.888 213.576 109.451 210.849 111.083 208.215C112.714 205.589 114.824 204.039 117.423 203.565C120.012 203.091 122.215 204.225 124.006 206.97C127.967 199.101 134.298 194.375 143.001 192.8C154.092 190.793 163.618 194.621 171.573 204.268C176.769 192.817 185.169 186.041 196.747 183.941C208.326 181.84 217.827 184.932 225.252 193.223C230.078 198.331 234.106 205.487 237.343 214.677Z" fill="#FFCA99"/>
<path fill-rule="evenodd" clip-rule="evenodd" d="M445.736 163.876C447.544 166.341 449.058 169.026 450.185 171.88H450.193C452.303 177.046 453.262 182.713 452.959 188.294C452.924 189.271 452.794 190.241 452.665 191.207C452.609 191.623 452.553 192.038 452.505 192.453C452.392 193.207 452.275 193.86 452.159 194.508C452.086 194.915 452.013 195.32 451.942 195.747L450.815 202.184L441.801 253.663L420.133 377.336C420.133 377.336 419.376 380.419 418.157 385.154L417.745 387.491C417.628 388.121 417.525 388.721 417.422 389.324C417.163 390.838 416.9 392.379 416.383 394.504C416.197 395.452 415.879 396.367 415.561 397.28C415.419 397.69 415.277 398.099 415.147 398.51C414.828 399.437 414.415 400.33 414.002 401.221C413.826 401.602 413.65 401.982 413.482 402.364C410.968 407.37 407.293 411.748 402.904 415.153C398.515 418.549 393.386 421.031 387.937 422.175C385.213 422.725 382.43 423.064 379.655 422.996L377.57 422.937C377.104 422.909 376.647 422.85 376.189 422.792C375.96 422.763 375.731 422.733 375.501 422.708L373.458 422.437L371.86 422.149L369.607 421.751C369.372 421.87 368.615 422.175 368.245 422.175L341.018 417.33L289.912 408.25L264.359 403.711L251.579 401.441L248.383 400.873L247.98 400.797L247.475 400.687L246.458 400.458L244.431 399.984C243.111 399.578 241.783 399.129 240.488 398.637C240.131 398.472 239.771 398.312 239.41 398.152C238.496 397.746 237.581 397.34 236.713 396.842C231.558 394.047 227.119 390.007 223.772 385.205C221.964 382.74 220.451 380.055 219.324 377.201C217.213 372.034 216.255 366.368 216.558 360.787C216.593 359.809 216.723 358.84 216.852 357.873C216.908 357.458 216.964 357.043 217.012 356.628C217.125 355.873 217.242 355.221 217.358 354.572C217.431 354.166 217.504 353.761 217.575 353.333L218.702 346.896L227.716 295.418L249.376 171.744C249.376 171.744 250.132 168.661 251.351 163.927L251.763 161.589C251.881 160.959 251.983 160.36 252.086 159.757C252.345 158.243 252.609 156.702 253.126 154.576C253.311 153.629 253.629 152.714 253.947 151.801C254.089 151.391 254.232 150.982 254.362 150.57C254.68 149.644 255.093 148.751 255.506 147.859C255.682 147.479 255.858 147.099 256.027 146.717C258.541 141.711 262.215 137.332 266.604 133.927C270.993 130.531 276.123 128.05 281.571 126.906C284.296 126.356 287.079 126.017 289.853 126.085L291.939 126.144C292.404 126.172 292.862 126.23 293.32 126.289C293.548 126.318 293.777 126.347 294.007 126.373L296.05 126.644L297.648 126.932L299.901 127.33C300.137 127.211 300.894 126.906 301.264 126.906L328.49 131.751L379.596 140.83L405.149 145.37L417.93 147.64L421.125 148.207L421.529 148.284L422.033 148.394L423.051 148.622L425.077 149.097C426.397 149.503 427.726 149.952 429.021 150.443C429.378 150.609 429.738 150.769 430.099 150.929C431.012 151.334 431.928 151.741 432.796 152.239C437.95 155.034 442.39 159.074 445.736 163.876ZM433.351 201.803L435.562 189.158L435.554 189.166C436.075 186.126 435.924 183.026 435.125 180.079C434.528 177.876 433.578 175.776 432.325 173.862C432.261 173.773 432.197 173.684 432.133 173.595C431.904 173.275 431.675 172.955 431.425 172.651C429.458 170.305 426.977 168.433 424.228 167.162L423.194 166.68L422.109 166.324C421.966 166.28 421.824 166.229 421.682 166.177C421.465 166.098 421.248 166.019 421.024 165.968L419.906 165.714C419.421 165.573 418.589 165.428 417.752 165.281C417.529 165.242 417.306 165.203 417.089 165.163L413.944 164.604L313.439 146.751L300.877 144.523L294.596 143.405L293.049 143.134L291.914 142.998C291.207 142.863 290.486 142.855 289.771 142.847C289.728 142.847 289.686 142.846 289.643 142.846C286.616 142.812 283.572 143.413 280.814 144.718C278.057 146.005 275.576 147.902 273.6 150.223C271.624 152.544 270.136 155.279 269.354 158.244L269.102 159.37L268.967 159.929L268.9 160.217L268.833 160.615L268.278 163.783L267.168 170.11L262.736 195.417L245.012 296.655L236.149 347.269L233.938 359.914C233.416 362.955 233.568 366.055 234.367 369.002C234.964 371.196 235.914 373.305 237.167 375.219L237.211 375.281C237.489 375.674 237.763 376.06 238.066 376.43C240.042 378.776 242.523 380.648 245.272 381.918L246.306 382.401L247.391 382.757C247.534 382.8 247.676 382.852 247.818 382.903C248.035 382.982 248.252 383.061 248.476 383.113L249.594 383.367C250.079 383.507 250.911 383.653 251.748 383.8C251.971 383.839 252.194 383.878 252.411 383.917L255.556 384.476L356.061 402.33L368.623 404.558L374.904 405.676L376.451 405.947L377.587 406.082C378.293 406.218 379.014 406.226 379.729 406.233L379.857 406.235C382.884 406.269 385.928 405.667 388.686 404.363C391.444 403.075 393.924 401.178 395.9 398.858C397.876 396.537 399.364 393.801 400.146 390.837L400.398 389.71L400.533 389.151L400.6 388.863L400.668 388.465L401.222 385.298L402.332 378.971L406.764 353.664L424.489 252.426L433.351 201.803ZM341.497 241.001C350.267 232.031 360.458 228.559 372.053 230.574L372.011 230.532C383.606 232.548 391.485 238.731 395.647 249.081C398.447 255.551 399.801 263.665 399.725 273.414C399.641 283.171 398.111 296.756 395.126 314.17C393.965 320.971 392.351 326.12 390.308 329.627C388.256 333.133 384.985 334.488 380.487 333.709C376.829 333.074 375.408 330.423 376.207 325.748L381.395 299.314C386.86 267.46 381.37 250.105 364.923 247.243C359.726 246.336 355.758 247.548 353.017 250.859C349.872 254.831 347.677 259.185 346.433 263.928C344.415 272.33 342.809 279.995 341.623 286.931L336.343 317.727C335.956 319.997 334.501 321.708 331.987 322.877C329.473 324.045 327.018 324.418 324.63 324.003C321.544 323.461 319.921 321.064 319.787 316.812L327.96 272.965C330.633 257.398 329.692 247.243 325.151 242.517C322.94 240.238 319.265 238.646 314.136 237.757C309.007 236.859 304.879 238.112 301.767 241.509C298.648 244.905 296.361 250.851 294.906 259.346L289.399 299.068C287.305 311.248 282.958 316.761 276.357 315.61C272.7 314.974 270.875 312.552 270.875 308.317C275.785 279.724 278.468 253.951 278.93 230.989C279.418 228.161 280.873 225.789 283.303 223.875C285.724 221.969 288.238 221.241 290.845 221.69C293.452 222.147 295.125 223.968 295.882 227.161C302.272 221.131 309.823 218.869 318.542 220.385C329.641 222.317 337.293 229.194 341.497 241.001Z" fill="white"/>
</g>
</g>
<defs>
<filter id="filter0_d_101_461" x="29" y="66" width="454.014" height="394.005" filterUnits="userSpaceOnUse" color-interpolation-filters="sRGB">
<feFlood flood-opacity="0" result="BackgroundImageFix"/>
<feColorMatrix in="SourceAlpha" type="matrix" values="0 0 0 0 0 0 0 0 0 0 0 0 0 0 0 0 0 0 127 0" result="hardAlpha"/>
<feOffset dy="7"/>
<feGaussianBlur stdDeviation="15"/>
<feComposite in2="hardAlpha" operator="out"/>
<feColorMatrix type="matrix" values="0 0 0 0 0 0 0 0 0 0 0 0 0 0 0 0 0 0 0.15 0"/>
<feBlend mode="normal" in2="BackgroundImageFix" result="effect1_dropShadow_101_461"/>
<feBlend mode="normal" in="SourceGraphic" in2="effect1_dropShadow_101_461" result="shape"/>
</filter>
<linearGradient id="paint0_linear_101_461" x1="5.57402e-06" y1="106.5" x2="512" y2="371.5" gradientUnits="userSpaceOnUse">
<stop stop-color="#D66526"/>
<stop offset="0.484375" stop-color="#F99532"/>
<stop offset="0.989583" stop-color="#FFAC59"/>
</linearGradient>
<radialGradient id="paint1_radial_101_461" cx="0" cy="0" r="1" gradientUnits="userSpaceOnUse" gradientTransform="translate(256 256) rotate(90) scale(256)">
<stop stop-color="#FF6500"/>
<stop offset="1" stop-color="#F99532" stop-opacity="0"/>
</radialGradient>
<linearGradient id="paint2_linear_101_461" x1="481.5" y1="16.5" x2="312.5" y2="324" gradientUnits="userSpaceOnUse">
<stop stop-color="white"/>
<stop offset="1" stop-color="#DA6E2E" stop-opacity="0"/>
</linearGradient>
<clipPath id="clip0_101_461">
<rect width="512" height="512" fill="white"/>
</clipPath>
</defs>
</svg>
