<svg width="128" height="128" viewBox="0 0 128 128" fill="none" xmlns="http://www.w3.org/2000/svg">
<g clip-path="url(#clip0_101_466)">
<path d="M0 21.25C0 9.51395 9.51395 0 21.25 0H106.75C118.486 0 128 9.51395 128 21.25V106.75C128 118.486 118.486 128 106.75 128H21.25C9.51395 128 0 118.486 0 106.75V21.25Z" fill="url(#paint0_linear_101_466)"/>
<path d="M0 21.25C0 9.51395 9.51395 0 21.25 0H106.75C118.486 0 128 9.51395 128 21.25V106.75C128 118.486 118.486 128 106.75 128H21.25C9.51395 128 0 118.486 0 106.75V21.25Z" fill="url(#paint1_radial_101_466)" fill-opacity="0.5"/>
<path d="M0 21.25C0 9.51395 9.51395 0 21.25 0H106.75C118.486 0 128 9.51395 128 21.25V106.75C128 118.486 118.486 128 106.75 128H21.25C9.51395 128 0 118.486 0 106.75V21.25Z" fill="url(#paint2_linear_101_466)" fill-opacity="0.2"/>
<g filter="url(#filter0_d_101_466)">
<path fill-rule="evenodd" clip-rule="evenodd" d="M64.9967 30.9217L65.2784 32.531H65.2721L66.6069 40.16C66.4976 40.4035 66.3988 40.6512 66.3315 40.9117L66.2684 41.1933L66.2348 41.333L66.218 41.405L66.2012 41.5045L66.0624 42.2964L65.785 43.8781L64.6772 50.205L64.3303 52.1911L63.3528 46.6011L61.1372 33.9454L60.5844 30.7841C60.4477 30.0261 60.1492 29.3104 59.712 28.6857C59.3862 28.2199 58.9826 27.807 58.5264 27.4661C58.5058 27.4521 58.4853 27.4381 58.4648 27.424C58.3827 27.3678 58.3007 27.3115 58.2132 27.2607C57.5532 26.8796 56.809 26.653 56.0565 26.5916L55.7727 26.5662L55.4889 26.5747C55.4499 26.5773 55.411 26.5774 55.372 26.5775C55.3164 26.5777 55.2608 26.5778 55.2051 26.5853L54.9213 26.6234C54.7802 26.6327 54.5374 26.6768 54.3045 26.719C54.2737 26.7246 54.2431 26.7302 54.2129 26.7356L53.4267 26.8754L28.3004 31.3389L25.1599 31.8957L23.5896 32.1752L23.2028 32.2451L22.9253 32.3107C22.7462 32.3408 22.5765 32.4012 22.4074 32.4615L22.3788 32.4717C21.6641 32.7258 21.0019 33.1281 20.4638 33.6722C19.9256 34.2143 19.5031 34.8728 19.2362 35.5885C18.9713 36.3042 18.8515 37.0728 18.9208 37.8372L18.9587 38.123L18.9755 38.267L18.9839 38.3411L19.0007 38.4406L19.1395 39.2326L19.4169 40.8143L20.5247 47.1411L24.956 72.4505L27.1716 85.1062L27.7244 88.2675C27.8611 89.0255 28.1596 89.7412 28.5968 90.3658C28.9226 90.8317 29.3262 91.2446 29.7824 91.5855C29.803 91.5994 29.8235 91.6135 29.844 91.6275C29.926 91.6838 30.0081 91.74 30.0956 91.7909C30.7556 92.172 31.4998 92.3986 32.2523 92.46L32.5361 92.4854L32.8199 92.4769C32.8588 92.4743 32.8978 92.4742 32.9367 92.4741C32.9924 92.4739 33.048 92.4738 33.1037 92.4663L33.3875 92.4282C33.5286 92.4188 33.7714 92.3748 34.0044 92.3325C34.0351 92.327 34.0657 92.3214 34.0959 92.316L34.8821 92.1762L58.0577 88.06L58.0387 88.1701L57.4859 91.3314C57.4144 91.7485 57.3976 92.1699 57.427 92.587L44.9742 94.7976L38.5859 95.9325L35.3908 96.5L34.592 96.6418L34.4911 96.6588L34.3628 96.6757L34.1043 96.7096L33.5893 96.7731C33.2445 96.7901 32.8956 96.8007 32.5487 96.7964C32.4468 96.7877 32.3448 96.7808 32.2427 96.774C31.9974 96.7574 31.7523 96.7409 31.5103 96.699C30.062 96.4873 28.6767 95.9198 27.4827 95.0792C26.8499 94.6557 26.2656 94.156 25.759 93.5822C24.8235 92.5489 24.1193 91.3017 23.7157 89.9635C23.6388 89.7296 23.5869 89.4893 23.535 89.2494C23.5132 89.1485 23.4913 89.0475 23.4677 88.9472C23.4299 88.7597 23.4019 88.595 23.374 88.4314C23.3568 88.3307 23.3397 88.2305 23.3205 88.1256L23.0388 86.5164L20.7875 73.6447L15.3788 42.7242C15.3788 42.7242 15.2947 41.9344 15.1791 40.7169L15.0761 40.1324C15.0512 39.9833 15.0258 39.8419 15.0002 39.7001C14.9307 39.3146 14.8607 38.926 14.8007 38.3686C14.7632 38.1318 14.7604 37.8919 14.7575 37.6518C14.7562 37.542 14.7549 37.4322 14.7503 37.3226C14.7473 37.0715 14.7692 36.8204 14.7912 36.5693C14.7998 36.471 14.8084 36.3728 14.8154 36.2745C14.9794 34.8834 15.4713 33.5388 16.2133 32.3594C16.9575 31.1843 17.9497 30.1573 19.1331 29.4205C19.7259 29.0563 20.3503 28.7366 21.0082 28.5142L21.5022 28.347C21.6224 28.3102 21.7448 28.2823 21.867 28.2544C21.9137 28.2438 21.9603 28.2331 22.0067 28.222L22.5112 28.1098L22.9106 28.0399L23.474 27.9404C23.5181 27.8938 23.6695 27.7562 23.7578 27.7244L30.5643 26.5175L43.343 24.2498L49.7313 23.1148L52.9264 22.5474L53.7252 22.4055L53.8261 22.3886L53.9544 22.3716L54.2129 22.3377L54.7279 22.2742C55.0727 22.2573 55.4216 22.2467 55.7685 22.2509C55.8704 22.2596 55.9725 22.2665 56.0745 22.2734C56.3198 22.2899 56.5649 22.3065 56.8069 22.3483C58.2553 22.5601 59.6405 23.1275 60.8345 23.9682C61.4673 24.3916 62.0516 24.8913 62.5582 25.4652C63.4937 26.4985 64.1979 27.7456 64.6015 29.0838C64.6784 29.3178 64.7304 29.558 64.7822 29.7979C64.8041 29.8989 64.8259 29.9998 64.8495 30.1002C64.8873 30.2876 64.9153 30.4524 64.9432 30.616C64.9604 30.7166 64.9775 30.8169 64.9967 30.9217ZM59.3357 53.6692C60.143 55.9688 60.9375 59.291 61.7132 63.6401C61.8499 64.4003 61.9339 65.0863 61.9718 65.7067L61.4505 68.6838C61.1141 69.0967 60.6117 69.3677 59.9327 69.4905C59.0183 69.6557 58.4592 69.156 58.2511 67.9893L57.2252 61.3321C55.8042 53.3792 53.04 49.7732 48.9346 50.5185C47.6355 50.7536 46.8052 51.3782 46.4436 52.3925C46.0421 53.5973 45.8971 54.8084 46.0064 56.0302C46.2439 58.1772 46.5193 60.1168 46.8283 61.8488L48.2009 69.5371C48.3018 70.1025 48.1064 70.6297 47.6145 71.1209C47.1226 71.6122 46.5781 71.9107 45.9811 72.0187C45.2076 72.1585 44.6253 71.7371 44.2322 70.7483L42.4307 59.7441C41.7349 55.8565 40.6544 53.5528 39.1851 52.8329C38.4724 52.4877 37.474 52.4306 36.1938 52.6635C34.9115 52.8943 34.0496 53.5443 33.6061 54.6094C33.1626 55.6766 33.131 57.2688 33.5094 59.3905L35.5863 69.1962C36.1307 72.2368 35.5779 73.9053 33.9277 74.2039C33.0154 74.369 32.3806 73.954 32.0211 72.961C30.7451 65.8211 29.1875 59.5345 27.3482 54.1012C27.222 53.394 27.3629 52.7122 27.7707 52.0537C28.1785 51.3973 28.7061 51.0098 29.3557 50.8912C30.0031 50.7726 30.5539 51.0564 31.0016 51.7424C31.9917 49.7753 33.5746 48.5938 35.7502 48.2C38.5229 47.6982 40.9046 48.6552 42.8932 51.067C44.1923 48.2042 46.2922 46.5103 49.1868 45.9852C52.0814 45.4601 54.4568 46.2329 56.3129 48.3058C57.5195 49.5826 58.5264 51.3719 59.3357 53.6692Z" fill="#FFCA99"/>
<path fill-rule="evenodd" clip-rule="evenodd" d="M111.434 40.969C111.886 41.5852 112.265 42.2564 112.546 42.97H112.548C113.076 44.2616 113.316 45.6781 113.24 47.0735C113.231 47.3179 113.199 47.5602 113.166 47.8018C113.152 47.9057 113.139 48.0094 113.127 48.1131C113.098 48.3018 113.069 48.4649 113.04 48.6269C113.022 48.7286 113.004 48.8299 112.986 48.9368L112.704 50.546L110.451 63.4157L105.033 94.334C105.033 94.334 104.844 95.1048 104.539 96.2884L104.436 96.8728C104.407 97.0303 104.382 97.1801 104.356 97.331C104.291 97.7094 104.225 98.0947 104.096 98.626C104.05 98.8629 103.97 99.0917 103.891 99.32C103.855 99.4224 103.819 99.5247 103.787 99.6276C103.707 99.8591 103.604 100.082 103.501 100.305C103.457 100.4 103.413 100.495 103.371 100.591C102.742 101.842 101.824 102.937 100.726 103.788C99.629 104.637 98.3467 105.258 96.9846 105.544C96.3035 105.681 95.6077 105.766 94.914 105.749L94.3927 105.734C94.2764 105.727 94.1619 105.713 94.0475 105.698C93.9902 105.691 93.933 105.683 93.8756 105.677L93.3648 105.609L92.9654 105.537L92.402 105.438C92.3431 105.467 92.1539 105.544 92.0615 105.544L85.2549 104.332L72.4783 102.063L66.0901 100.928L62.8949 100.36L62.0961 100.218L61.9952 100.199L61.869 100.172L61.6147 100.115L61.1081 99.996C60.7781 99.8944 60.4459 99.7821 60.1222 99.6593C60.033 99.618 59.9429 99.578 59.8527 99.5379C59.6243 99.4365 59.3954 99.3349 59.1784 99.2104C57.8898 98.5117 56.7799 97.5017 55.9432 96.3011C55.4913 95.685 55.1129 95.0137 54.8312 94.3002C54.3036 93.0085 54.064 91.592 54.1396 90.1966C54.1485 89.9522 54.181 89.7099 54.2133 89.4682C54.2272 89.3644 54.2411 89.2607 54.2532 89.157C54.2816 88.9683 54.3108 88.8051 54.3398 88.643C54.358 88.5414 54.3762 88.4402 54.394 88.3333L54.6757 86.7241L56.9291 73.8545L62.3441 42.9361C62.3441 42.9361 62.5333 42.1653 62.8381 40.9817L62.9411 40.3973C62.9705 40.2398 62.9961 40.09 63.0219 39.9391C63.0866 39.5607 63.1524 39.1754 63.2817 38.6441C63.3281 38.4073 63.4076 38.1785 63.487 37.9502C63.5226 37.8478 63.5581 37.7455 63.5907 37.6426C63.6702 37.411 63.7736 37.1878 63.8768 36.9648C63.9208 36.8697 63.9648 36.7747 64.0069 36.6791C64.6354 35.4278 65.554 34.333 66.6513 33.4819C67.7486 32.6328 69.0309 32.0124 70.3931 31.7265C71.0741 31.5889 71.7699 31.5042 72.4636 31.5211L72.9849 31.536C73.1012 31.543 73.2156 31.5576 73.3301 31.5722C73.3873 31.5795 73.4446 31.5868 73.502 31.5931L74.0129 31.6609L74.4123 31.7329L74.9756 31.8324C75.0345 31.8027 75.2237 31.7265 75.3162 31.7265L82.1227 32.9377L94.8993 35.2075L101.288 36.3425L104.483 36.9099L105.282 37.0518L105.382 37.0709L105.509 37.0984L105.763 37.1556L106.27 37.2741C106.6 37.3758 106.932 37.488 107.255 37.6108C107.345 37.6521 107.435 37.6921 107.525 37.7322C107.753 37.8336 107.982 37.9352 108.199 38.0597C109.488 38.7584 110.598 39.7684 111.434 40.969ZM108.338 50.4508L108.891 47.2895L108.889 47.2916C109.019 46.5314 108.981 45.7565 108.782 45.0196C108.632 44.4691 108.395 43.944 108.082 43.4654C108.065 43.4432 108.049 43.4209 108.033 43.3985C107.976 43.3187 107.919 43.2387 107.857 43.1626C107.365 42.5761 106.745 42.1082 106.057 41.7906L105.799 41.6699L105.527 41.5809C105.492 41.57 105.456 41.5572 105.421 41.5443C105.367 41.5246 105.312 41.5048 105.256 41.492L104.977 41.4285C104.855 41.3934 104.648 41.3569 104.438 41.3202C104.383 41.3104 104.327 41.3006 104.273 41.2908L103.486 41.1511L78.36 36.6876L75.2195 36.1307L73.6492 35.8512L73.2624 35.7835L72.9786 35.7496C72.802 35.7156 72.6217 35.7137 72.4429 35.7118L72.4111 35.7115C71.6543 35.703 70.8933 35.8533 70.2039 36.1794C69.5144 36.5013 68.8943 36.9756 68.4003 37.5557C67.9063 38.1359 67.5342 38.8198 67.3387 39.5609L67.2756 39.8425L67.242 39.9823L67.2252 40.0543L67.2084 40.1538L67.0696 40.9457L66.7922 42.5274L65.6844 48.8542L61.2531 74.1636L59.0375 86.8172L58.4847 89.9785C58.3544 90.7387 58.3922 91.5137 58.5919 92.2505C58.7411 92.7989 58.9787 93.3262 59.2919 93.8047L59.3026 93.8198C59.3724 93.9183 59.4408 94.0148 59.5168 94.1075C60.0108 94.694 60.6309 95.1619 61.3183 95.4796L61.5769 95.6003L61.848 95.6892C61.8838 95.7001 61.9192 95.7129 61.9547 95.7258C62.0089 95.7455 62.0633 95.7653 62.1192 95.7781L62.3988 95.8416C62.52 95.8768 62.728 95.9132 62.9375 95.95C62.993 95.9597 63.0488 95.9695 63.103 95.9793L63.8892 96.119L89.0155 100.583L92.1561 101.139L93.7263 101.419L94.1131 101.487L94.3969 101.521C94.5735 101.555 94.7538 101.556 94.9326 101.558L94.9644 101.559C95.7212 101.567 96.4822 101.417 97.1716 101.091C97.8611 100.769 98.4813 100.295 98.9753 99.7144C99.4692 99.1342 99.8413 98.4503 100.037 97.7092L100.1 97.4276L100.133 97.2878L100.15 97.2158L100.167 97.1163L100.306 96.3244L100.583 94.7427L101.691 88.4159L106.122 63.1065L108.338 50.4508ZM85.3745 60.2501C87.567 58.0078 90.1147 57.1397 93.0135 57.6436L93.003 57.633C95.9018 58.137 97.8715 59.6827 98.912 62.2701C99.612 63.8878 99.9504 65.9163 99.9315 68.3534C99.9105 70.7927 99.5279 74.189 98.7817 78.5424C98.4916 80.2427 98.088 81.5301 97.5772 82.4067C97.0642 83.2833 96.2465 83.6221 95.1219 83.4273C94.2075 83.2685 93.8522 82.6057 94.0519 81.4369L95.3489 74.8285C96.7153 66.8649 95.3426 62.5263 91.2309 61.8107C89.9318 61.5841 88.9397 61.8869 88.2544 62.7148C87.4682 63.7079 86.9195 64.7962 86.6084 65.982C86.1039 68.0824 85.7024 69.9987 85.406 71.7328L84.0859 79.4317C83.9892 79.9992 83.6255 80.4269 82.997 80.7191C82.3685 81.0113 81.7547 81.1045 81.1577 81.0007C80.3862 80.8652 79.9805 80.266 79.9469 79.203L81.9901 68.2412C82.6586 64.3494 82.4232 61.8107 81.288 60.6291C80.7352 60.0596 79.8166 59.6615 78.5343 59.4392C77.252 59.2147 76.2199 59.5281 75.4421 60.3772C74.6622 61.2263 74.0904 62.7127 73.7268 64.8364L72.3499 74.7671C71.8265 77.8119 70.7397 79.1903 69.0896 78.9024C68.1752 78.7436 67.719 78.138 67.719 77.0793C68.9466 69.9309 69.6172 63.4876 69.7328 57.7473C69.8547 57.0401 70.2184 56.4473 70.8259 55.9687C71.4313 55.4923 72.0598 55.3102 72.7115 55.4224C73.3631 55.5368 73.7814 55.992 73.9706 56.7903C75.5682 55.2827 77.4559 54.7173 79.6358 55.0964C82.4105 55.5791 84.3235 57.2985 85.3745 60.2501Z" fill="white"/>
</g>
</g>
<defs>
<filter id="filter0_d_101_466" x="-15.25" y="-0.75" width="158.504" height="143.501" filterUnits="userSpaceOnUse" color-interpolation-filters="sRGB">
<feFlood flood-opacity="0" result="BackgroundImageFix"/>
<feColorMatrix in="SourceAlpha" type="matrix" values="0 0 0 0 0 0 0 0 0 0 0 0 0 0 0 0 0 0 127 0" result="hardAlpha"/>
<feOffset dy="7"/>
<feGaussianBlur stdDeviation="15"/>
<feComposite in2="hardAlpha" operator="out"/>
<feColorMatrix type="matrix" values="0 0 0 0 0 0 0 0 0 0 0 0 0 0 0 0 0 0 0.15 0"/>
<feBlend mode="normal" in2="BackgroundImageFix" result="effect1_dropShadow_101_466"/>
<feBlend mode="normal" in="SourceGraphic" in2="effect1_dropShadow_101_466" result="shape"/>
</filter>
<linearGradient id="paint0_linear_101_466" x1="1.39351e-06" y1="26.625" x2="128" y2="92.875" gradientUnits="userSpaceOnUse">
<stop stop-color="#D66526"/>
<stop offset="0.484375" stop-color="#F99532"/>
<stop offset="0.989583" stop-color="#FFAC59"/>
</linearGradient>
<radialGradient id="paint1_radial_101_466" cx="0" cy="0" r="1" gradientUnits="userSpaceOnUse" gradientTransform="translate(64 64) rotate(90) scale(64)">
<stop stop-color="#FF6500"/>
<stop offset="1" stop-color="#F99532" stop-opacity="0"/>
</radialGradient>
<linearGradient id="paint2_linear_101_466" x1="120.375" y1="4.12499" x2="78.125" y2="81" gradientUnits="userSpaceOnUse">
<stop stop-color="white"/>
<stop offset="1" stop-color="#DA6E2E" stop-opacity="0"/>
</linearGradient>
<clipPath id="clip0_101_466">
<rect width="128" height="128" fill="white"/>
</clipPath>
</defs>
</svg>
