<svg width="192" height="192" viewBox="0 0 192 192" fill="none" xmlns="http://www.w3.org/2000/svg">
<g clip-path="url(#clip0_101_463)">
<path d="M0 31.875C0 14.2709 14.2709 0 31.875 0H160.125C177.729 0 192 14.2709 192 31.875V160.125C192 177.729 177.729 192 160.125 192H31.875C14.2709 192 0 177.729 0 160.125V31.875Z" fill="url(#paint0_linear_101_463)"/>
<path d="M0 31.875C0 14.2709 14.2709 0 31.875 0H160.125C177.729 0 192 14.2709 192 31.875V160.125C192 177.729 177.729 192 160.125 192H31.875C14.2709 192 0 177.729 0 160.125V31.875Z" fill="url(#paint1_radial_101_463)" fill-opacity="0.5"/>
<path d="M0 31.875C0 14.2709 14.2709 0 31.875 0H160.125C177.729 0 192 14.2709 192 31.875V160.125C192 177.729 177.729 192 160.125 192H31.875C14.2709 192 0 177.729 0 160.125V31.875Z" fill="url(#paint2_linear_101_463)" fill-opacity="0.2"/>
<g filter="url(#filter0_d_101_463)">
<path fill-rule="evenodd" clip-rule="evenodd" d="M97.495 46.3826L97.9175 48.7964H97.9081L99.9103 60.24C99.7463 60.6052 99.5982 60.9768 99.4973 61.3675L99.4027 61.7899L99.3522 61.9995L99.327 62.1075L99.3018 62.2568L99.0937 63.4447L98.6774 65.8172L97.0157 75.3074L96.4955 78.2866L95.0293 69.9017L91.7058 50.9181L90.8766 46.1761C90.6716 45.0391 90.2239 43.9656 89.568 43.0286C89.0793 42.3299 88.4739 41.7105 87.7896 41.1992C87.7587 41.1782 87.728 41.1571 87.6972 41.136C87.5741 41.0517 87.451 40.9673 87.3198 40.8911C86.3297 40.3194 85.2135 39.9795 84.0847 39.8874L83.659 39.8493L83.2333 39.862C83.1749 39.8659 83.1165 39.8661 83.0581 39.8663C82.9746 39.8665 82.8911 39.8667 82.8077 39.8779L82.382 39.9351C82.1703 39.9491 81.806 40.0152 81.4566 40.0786C81.4105 40.0869 81.3646 40.0953 81.3194 40.1034L80.1401 40.313L42.4506 47.0083L37.7398 47.8436L35.3844 48.2628L34.8042 48.3676L34.388 48.4661C34.1193 48.5112 33.8648 48.6019 33.611 48.6922C33.5968 48.6973 33.5825 48.7024 33.5682 48.7075C32.4961 49.0886 31.5029 49.6921 30.6957 50.5084C29.8885 51.3214 29.2547 52.3092 28.8542 53.3827C28.4569 54.4563 28.2772 55.6092 28.3813 56.7558L28.438 57.1845L28.4632 57.4005L28.4759 57.5117L28.5011 57.661L28.7092 58.8488L29.1254 61.2214L30.7871 70.7116L37.4339 108.676L40.7573 127.659L41.5866 132.401C41.7916 133.538 42.2393 134.612 42.8952 135.549C43.3839 136.248 43.9893 136.867 44.6735 137.378C44.7044 137.399 44.7352 137.42 44.7659 137.441C44.889 137.526 45.0122 137.61 45.1434 137.686C46.1335 138.258 47.2497 138.598 48.3785 138.69L48.8042 138.728L49.2298 138.715C49.2883 138.711 49.3467 138.711 49.4051 138.711C49.4886 138.711 49.5721 138.711 49.6555 138.699L50.0812 138.642C50.2929 138.628 50.6571 138.562 51.0066 138.499C51.0527 138.49 51.0986 138.482 51.1438 138.474L52.3231 138.264L87.0865 132.09L87.0581 132.255L86.2288 136.997C86.1216 137.623 86.0964 138.255 86.1405 138.881L67.4613 142.196L57.8789 143.899L53.0861 144.75L51.8879 144.963L51.7366 144.988L51.5442 145.014L51.1564 145.064L50.3839 145.16C49.8668 145.185 49.3434 145.201 48.8231 145.195C48.6702 145.182 48.5171 145.171 48.3641 145.161C47.9961 145.136 47.6284 145.111 47.2654 145.049C45.0929 144.731 43.015 143.88 41.224 142.619C40.2749 141.984 39.3983 141.234 38.6384 140.373C37.2353 138.823 36.179 136.953 35.5736 134.945C35.4582 134.594 35.3803 134.234 35.3025 133.874C35.2697 133.723 35.237 133.571 35.2015 133.421C35.1449 133.14 35.1028 132.892 35.061 132.647C35.0352 132.496 35.0096 132.346 34.9808 132.188L34.5583 129.775L31.1812 110.467L23.0682 64.0862C23.0682 64.0862 22.9421 62.9015 22.7687 61.0753L22.6142 60.1987C22.5769 59.9749 22.5386 59.7629 22.5003 59.5502C22.3961 58.9719 22.291 58.3889 22.2011 57.553C22.1448 57.1976 22.1405 56.8378 22.1363 56.4777C22.1343 56.313 22.1323 56.1483 22.1254 55.984C22.1209 55.6073 22.1538 55.2306 22.1868 54.854C22.1996 54.7066 22.2125 54.5592 22.2232 54.4118C22.4691 52.3251 23.2069 50.3083 24.32 48.5392C25.4362 46.7764 26.9245 45.236 28.6997 44.1307C29.5889 43.5844 30.5254 43.1048 31.5123 42.7713L32.2533 42.5204C32.4336 42.4653 32.6172 42.4234 32.8005 42.3816C32.8705 42.3657 32.9404 42.3497 33.0101 42.333L33.7668 42.1647L34.3659 42.0599L35.211 41.9106C35.2772 41.8407 35.5042 41.6343 35.6366 41.5867L45.8465 39.7763L65.0145 36.3746L74.5969 34.6723L79.3897 33.8211L80.5879 33.6083L80.7392 33.5828L80.9315 33.5574L81.3194 33.5066L82.0919 33.4113C82.609 33.3859 83.1324 33.37 83.6527 33.3764C83.8056 33.3895 83.9587 33.3998 84.1118 33.4101C84.4797 33.4349 84.8474 33.4597 85.2104 33.5225C87.3829 33.8401 89.4608 34.6913 91.2518 35.9522C92.2009 36.5874 93.0775 37.337 93.8374 38.1977C95.2405 39.7477 96.2968 41.6184 96.9022 43.6257C97.0176 43.9766 97.0955 44.337 97.1733 44.6969C97.2061 44.8483 97.2388 44.9997 97.2743 45.1502C97.3309 45.4315 97.373 45.6786 97.4148 45.924C97.4406 46.075 97.4662 46.2253 97.495 46.3826ZM89.0036 80.5039C90.2144 83.9531 91.4063 88.9364 92.5698 95.4602C92.7748 96.6004 92.9009 97.6295 92.9577 98.5601L92.1757 103.026C91.6712 103.645 90.9176 104.052 89.8991 104.236C88.5275 104.484 87.6888 103.734 87.3766 101.984L85.8379 91.9982C83.7063 80.0687 79.56 74.6598 73.4019 75.7778C71.4532 76.1304 70.2077 77.0673 69.6654 78.5887C69.0631 80.3959 68.8456 82.2126 69.0095 84.0452C69.3658 87.2658 69.7789 90.1751 70.2424 92.7732L72.3014 104.306C72.4528 105.154 72.1595 105.945 71.4217 106.681C70.6839 107.418 69.8672 107.866 68.9717 108.028C67.8113 108.238 66.9379 107.606 66.3483 106.122L63.646 89.6161C62.6023 83.7848 60.9816 80.3292 58.7776 79.2493C57.7087 78.7316 56.2109 78.6458 54.2907 78.9952C52.3672 79.3414 51.0745 80.3165 50.4091 81.9141C49.7438 83.5148 49.6965 85.9033 50.2641 89.0857L53.3794 103.794C54.1961 108.355 53.3668 110.858 50.8916 111.306C49.5231 111.554 48.5709 110.931 48.0317 109.441C46.1177 98.7316 43.7812 89.3017 41.0222 81.1518C40.833 80.091 41.0443 79.0683 41.656 78.0805C42.2677 77.0959 43.0592 76.5147 44.0335 76.3368C45.0047 76.1589 45.8308 76.5845 46.5024 77.6136C47.9875 74.663 50.3618 72.8907 53.6253 72.3C57.7843 71.5472 61.3569 72.9828 64.3397 76.6004C66.2884 72.3063 69.4384 69.7654 73.7802 68.9778C78.1221 68.1901 81.6852 69.3494 84.4694 72.4588C86.2793 74.374 87.7897 77.0578 89.0036 80.5039Z" fill="#FFCA99"/>
<path fill-rule="evenodd" clip-rule="evenodd" d="M167.151 61.4535C167.829 62.3778 168.397 63.3846 168.819 64.455H168.822C169.614 66.3924 169.973 68.5172 169.86 70.6103C169.846 70.9768 169.798 71.3402 169.749 71.7027C169.728 71.8585 169.707 72.0141 169.689 72.1697C169.647 72.4528 169.603 72.6975 169.559 72.9406C169.532 73.0931 169.505 73.2449 169.478 73.4052L169.056 75.8191L165.675 95.1235L157.55 141.501C157.55 141.501 157.266 142.657 156.809 144.433L156.654 145.309C156.61 145.546 156.572 145.77 156.533 145.996C156.436 146.564 156.337 147.142 156.143 147.939C156.074 148.294 155.954 148.637 155.835 148.98C155.782 149.134 155.729 149.287 155.68 149.441C155.561 149.789 155.406 150.124 155.251 150.458C155.185 150.601 155.119 150.743 155.056 150.887C154.113 152.764 152.735 154.406 151.089 155.682C149.443 156.956 147.52 157.887 145.476 158.315C144.455 158.522 143.411 158.649 142.37 158.624L141.589 158.601C141.414 158.591 141.242 158.569 141.071 158.547C140.985 158.536 140.899 158.525 140.813 158.516L140.047 158.414L139.448 158.306L138.602 158.157C138.514 158.201 138.23 158.315 138.092 158.315L127.882 156.499L108.717 153.094L99.1346 151.392L94.3418 150.54L93.1436 150.328L92.9923 150.299L92.8031 150.258L92.4215 150.172L91.6616 149.994C91.1666 149.842 90.6684 149.673 90.1828 149.489C90.0489 149.427 89.9138 149.367 89.7786 149.307C89.436 149.155 89.0926 149.002 88.7671 148.816C86.8342 147.768 85.1693 146.253 83.9144 144.452C83.2364 143.527 82.6689 142.521 82.2464 141.45C81.4549 139.513 81.0955 137.388 81.209 135.295C81.2222 134.928 81.2709 134.565 81.3195 134.202C81.3404 134.047 81.3612 133.891 81.3792 133.736C81.4219 133.452 81.4657 133.208 81.5093 132.964C81.5366 132.812 81.5638 132.66 81.5905 132.5L82.013 130.086L85.3932 110.782L93.5157 64.4041C93.5157 64.4041 93.7995 63.248 94.2567 61.4726L94.4112 60.596C94.4552 60.3597 94.4936 60.135 94.5323 59.9087C94.6293 59.3411 94.7281 58.7632 94.922 57.9662C94.9917 57.6109 95.1109 57.2678 95.23 56.9253C95.2834 56.7717 95.3367 56.6182 95.3855 56.4639C95.5049 56.1165 95.6599 55.7817 95.8146 55.4473C95.8807 55.3047 95.9467 55.1621 96.0098 55.0187C96.9526 53.1416 98.3305 51.4996 99.9765 50.2228C101.622 48.9492 103.546 48.0186 105.589 47.5898C106.611 47.3834 107.654 47.2563 108.695 47.2817L109.477 47.304C109.651 47.3145 109.823 47.3364 109.995 47.3583C110.08 47.3692 110.166 47.3802 110.253 47.3897L111.019 47.4913L111.618 47.5993L112.463 47.7486C112.551 47.7041 112.835 47.5898 112.974 47.5898L123.184 49.4065L142.348 52.8113L151.931 54.5137L156.724 55.3649L157.922 55.5777L158.073 55.6063L158.262 55.6476L158.644 55.7334L159.404 55.9112C159.899 56.0637 160.397 56.232 160.883 56.4162C161.016 56.4782 161.152 56.5382 161.287 56.5983C161.629 56.7504 161.973 56.9028 162.298 57.0896C164.231 58.1377 165.896 59.6527 167.151 61.4535ZM162.506 75.6762L163.336 70.9342L163.333 70.9374C163.528 69.7972 163.471 68.6347 163.172 67.5294C162.948 66.7037 162.592 65.916 162.122 65.1982C162.098 65.1649 162.074 65.1314 162.05 65.0979C161.964 64.9781 161.878 64.8582 161.784 64.744C161.047 63.8642 160.116 63.1623 159.085 62.6859L158.697 62.5048L158.291 62.3714C158.237 62.3551 158.184 62.3358 158.131 62.3164C158.049 62.2869 157.968 62.2572 157.884 62.238L157.465 62.1428C157.283 62.0901 156.971 62.0354 156.657 61.9803C156.573 61.9656 156.49 61.951 156.408 61.9363L155.229 61.7267L117.539 55.0314L112.829 54.1961L110.473 53.7769L109.893 53.6752L109.467 53.6244C109.203 53.5734 108.932 53.5706 108.664 53.5678L108.616 53.5673C107.481 53.5545 106.34 53.7801 105.305 54.2692C104.271 54.7519 103.341 55.4634 102.6 56.3336C101.859 57.2039 101.301 58.2298 101.008 59.3414L100.913 59.7638L100.863 59.9735L100.837 60.0815L100.812 60.2307L100.604 61.4186L100.188 63.7912L98.526 73.2814L91.8792 111.245L88.5558 130.226L87.7265 134.968C87.531 136.108 87.5878 137.271 87.8873 138.376C88.1112 139.198 88.4675 139.989 88.9373 140.707L88.9538 140.73C89.0584 140.878 89.1609 141.022 89.2747 141.161C90.0157 142.041 90.9459 142.743 91.977 143.219L92.3648 143.4L92.7715 143.534C92.8252 143.55 92.8783 143.569 92.9316 143.589C93.0129 143.618 93.0944 143.648 93.1783 143.667L93.5977 143.762C93.7796 143.815 94.0915 143.87 94.4057 143.925C94.4891 143.94 94.5726 143.954 94.654 143.969L95.8332 144.179L133.523 150.874L138.234 151.709L140.589 152.128L141.169 152.23L141.595 152.281C141.86 152.332 142.13 152.335 142.398 152.337L142.446 152.338C143.581 152.351 144.723 152.125 145.757 151.636C146.791 151.153 147.721 150.442 148.462 149.572C149.203 148.701 149.761 147.675 150.055 146.564L150.149 146.141L150.2 145.932L150.225 145.824L150.25 145.675L150.458 144.487L150.875 142.114L152.536 132.624L159.183 94.6598L162.506 75.6762ZM128.061 90.3752C131.35 87.0117 135.172 85.7095 139.52 86.4654L139.504 86.4495C143.852 87.2055 146.807 89.524 148.367 93.4052C149.417 95.8318 149.925 98.8745 149.897 102.53C149.865 106.189 149.291 111.284 148.172 117.814C147.737 120.364 147.131 122.295 146.365 123.61C145.596 124.925 144.369 125.433 142.682 125.141C141.311 124.903 140.778 123.909 141.077 122.155L143.023 112.243C145.072 100.297 143.013 93.7895 136.846 92.716C134.897 92.3762 133.409 92.8304 132.381 94.0722C131.202 95.5618 130.379 97.1943 129.912 98.973C129.155 102.124 128.553 104.998 128.109 107.599L126.128 119.148C125.983 119.999 125.438 120.64 124.495 121.079C123.552 121.517 122.632 121.657 121.736 121.501C120.579 121.298 119.97 120.399 119.92 118.805L122.985 102.362C123.987 96.5242 123.634 92.716 121.932 90.9437C121.102 90.0894 119.724 89.4923 117.801 89.1588C115.878 88.8221 114.329 89.2922 113.163 90.5658C111.993 91.8394 111.135 94.069 110.59 97.2547L108.524 112.151C107.739 116.718 106.109 118.786 103.634 118.354C102.262 118.115 101.578 117.207 101.578 115.619C103.419 104.896 104.425 95.2315 104.599 86.6211C104.782 85.5602 105.327 84.6709 106.238 83.9531C107.146 83.2385 108.089 82.9654 109.067 83.1337C110.044 83.3052 110.672 83.9881 110.955 85.1855C113.352 82.9241 116.183 82.076 119.453 82.6446C123.615 83.3687 126.485 85.9477 128.061 90.3752Z" fill="white"/>
</g>
</g>
<defs>
<filter id="filter0_d_101_463" x="-7.875" y="10.375" width="207.755" height="185.252" filterUnits="userSpaceOnUse" color-interpolation-filters="sRGB">
<feFlood flood-opacity="0" result="BackgroundImageFix"/>
<feColorMatrix in="SourceAlpha" type="matrix" values="0 0 0 0 0 0 0 0 0 0 0 0 0 0 0 0 0 0 127 0" result="hardAlpha"/>
<feOffset dy="7"/>
<feGaussianBlur stdDeviation="15"/>
<feComposite in2="hardAlpha" operator="out"/>
<feColorMatrix type="matrix" values="0 0 0 0 0 0 0 0 0 0 0 0 0 0 0 0 0 0 0.15 0"/>
<feBlend mode="normal" in2="BackgroundImageFix" result="effect1_dropShadow_101_463"/>
<feBlend mode="normal" in="SourceGraphic" in2="effect1_dropShadow_101_463" result="shape"/>
</filter>
<linearGradient id="paint0_linear_101_463" x1="2.09026e-06" y1="39.9375" x2="192" y2="139.312" gradientUnits="userSpaceOnUse">
<stop stop-color="#D66526"/>
<stop offset="0.484375" stop-color="#F99532"/>
<stop offset="0.989583" stop-color="#FFAC59"/>
</linearGradient>
<radialGradient id="paint1_radial_101_463" cx="0" cy="0" r="1" gradientUnits="userSpaceOnUse" gradientTransform="translate(96 96) rotate(90) scale(96)">
<stop stop-color="#FF6500"/>
<stop offset="1" stop-color="#F99532" stop-opacity="0"/>
</radialGradient>
<linearGradient id="paint2_linear_101_463" x1="180.562" y1="6.18748" x2="117.187" y2="121.5" gradientUnits="userSpaceOnUse">
<stop stop-color="white"/>
<stop offset="1" stop-color="#DA6E2E" stop-opacity="0"/>
</linearGradient>
<clipPath id="clip0_101_463">
<rect width="192" height="192" fill="white"/>
</clipPath>
</defs>
</svg>
