<svg width="72" height="72" viewBox="0 0 72 72" fill="none" xmlns="http://www.w3.org/2000/svg">
<g clip-path="url(#clip0_101_467)">
<path d="M0 11.9531C0 5.3516 5.3516 0 11.9531 0H60.0469C66.6484 0 72 5.3516 72 11.9531V60.0469C72 66.6484 66.6484 72 60.0469 72H11.9531C5.3516 72 0 66.6484 0 60.0469V11.9531Z" fill="url(#paint0_linear_101_467)"/>
<path d="M0 11.9531C0 5.3516 5.3516 0 11.9531 0H60.0469C66.6484 0 72 5.3516 72 11.9531V60.0469C72 66.6484 66.6484 72 60.0469 72H11.9531C5.3516 72 0 66.6484 0 60.0469V11.9531Z" fill="url(#paint1_radial_101_467)" fill-opacity="0.5"/>
<path d="M0 11.9531C0 5.3516 5.3516 0 11.9531 0H60.0469C66.6484 0 72 5.3516 72 11.9531V60.0469C72 66.6484 66.6484 72 60.0469 72H11.9531C5.3516 72 0 66.6484 0 60.0469V11.9531Z" fill="url(#paint2_linear_101_467)" fill-opacity="0.2"/>
<g filter="url(#filter0_d_101_467)">
<path fill-rule="evenodd" clip-rule="evenodd" d="M36.5606 17.3935L36.7191 18.2987H36.7155L37.4664 22.59C37.4049 22.727 37.3493 22.8663 37.3115 23.0128L37.276 23.1712L37.2571 23.2498L37.2476 23.2903L37.2382 23.3463L37.1601 23.7917L37.004 24.6815L36.3809 28.2403L36.1858 29.3575L35.636 26.2131L34.3897 19.0943L34.0787 17.316C34.0019 16.8897 33.8339 16.4871 33.588 16.1357C33.4047 15.8737 33.1777 15.6414 32.9211 15.4497C32.9095 15.4418 32.8979 15.4339 32.8863 15.4259C32.8402 15.3943 32.7941 15.3627 32.7449 15.3342C32.3737 15.1198 31.9551 14.9923 31.5318 14.9578L31.3721 14.9435L31.2125 14.9483C31.1906 14.9497 31.1687 14.9498 31.1468 14.9498C31.1155 14.9499 31.0842 14.95 31.0529 14.9542L30.8933 14.9757C30.8138 14.9809 30.6772 15.0057 30.5461 15.0295C30.5289 15.0326 30.5117 15.0357 30.4948 15.0388L30.0525 15.1174L15.919 17.6281L14.1524 17.9413L13.2691 18.0986L13.0516 18.1379L12.8955 18.1748C12.7948 18.1917 12.6994 18.2257 12.6042 18.2596L12.5881 18.2653C12.186 18.4082 11.8136 18.6345 11.5109 18.9406C11.2082 19.2455 10.9705 19.6159 10.8203 20.0185C10.6713 20.4211 10.604 20.8534 10.643 21.2834L10.6643 21.4442L10.6737 21.5252L10.6784 21.5669L10.6879 21.6229L10.7659 22.0683L10.922 22.958L11.5452 26.5169L14.0377 40.7534L15.284 47.8722L15.595 49.6505C15.6718 50.0769 15.8397 50.4794 16.0857 50.8308C16.269 51.0928 16.496 51.3251 16.7526 51.5168C16.7641 51.5247 16.7757 51.5326 16.7872 51.5404C16.8334 51.5721 16.8795 51.6038 16.9288 51.6324C17.3 51.8467 17.7186 51.9742 18.1419 52.0087L18.3016 52.023L18.4612 52.0183C18.4831 52.0168 18.505 52.0167 18.5269 52.0167C18.5582 52.0166 18.5895 52.0165 18.6208 52.0123L18.7805 51.9909C18.8598 51.9856 18.9964 51.9608 19.1275 51.937C19.1448 51.9339 19.162 51.9308 19.1789 51.9277L19.6212 51.8491L32.6574 49.5337L32.6468 49.5957L32.3358 51.3739C32.2956 51.6085 32.2862 51.8456 32.3027 52.0802L25.298 53.3236L21.7046 53.962L19.9073 54.2812L19.458 54.361L19.4012 54.3706L19.3291 54.3801L19.1837 54.3991L18.894 54.4349C18.7 54.4444 18.5038 54.4504 18.3087 54.448C18.2513 54.4431 18.1939 54.4392 18.1365 54.4353C17.9985 54.426 17.8607 54.4167 17.7245 54.3932C16.9098 54.2741 16.1306 53.9549 15.459 53.4821C15.1031 53.2438 14.7744 52.9628 14.4894 52.64C13.9632 52.0588 13.5671 51.3572 13.3401 50.6045C13.2968 50.4729 13.2676 50.3378 13.2384 50.2028C13.2262 50.146 13.2139 50.0893 13.2006 50.0328C13.1793 49.9274 13.1636 49.8347 13.1479 49.7427C13.1382 49.6861 13.1286 49.6297 13.1178 49.5707L12.9594 48.6655L11.693 41.4251L8.65058 24.0323C8.65058 24.0323 8.60328 23.5881 8.53825 22.9032L8.48031 22.5745C8.46632 22.4906 8.45199 22.411 8.43761 22.3313C8.39853 22.1144 8.35912 21.8958 8.32541 21.5824C8.30431 21.4491 8.30271 21.3142 8.3011 21.1791C8.30037 21.1174 8.29963 21.0556 8.29703 20.994C8.29533 20.8528 8.30768 20.7115 8.32003 20.5703C8.32486 20.515 8.3297 20.4597 8.33369 20.4044C8.42592 19.6219 8.70261 18.8656 9.12 18.2022C9.53858 17.5412 10.0967 16.9635 10.7624 16.549C11.0958 16.3442 11.447 16.1643 11.8171 16.0393L12.095 15.9452C12.1626 15.9245 12.2313 15.9088 12.3 15.8931C12.3263 15.8871 12.3526 15.8811 12.3788 15.8749L12.6626 15.8118L12.8872 15.7725L13.2041 15.7165C13.2289 15.6903 13.3141 15.6129 13.3637 15.595L17.1924 14.9161L24.3804 13.6405L27.9738 13.0021L29.7711 12.6829L30.2204 12.6031L30.2772 12.5936L30.3493 12.584L30.4948 12.565L30.7845 12.5292C30.9784 12.5197 31.1747 12.5138 31.3698 12.5161C31.4271 12.521 31.4845 12.5249 31.5418 12.5288C31.6798 12.5381 31.8178 12.5474 31.9539 12.5709C32.7686 12.69 33.5478 13.0092 34.2194 13.4821C34.5753 13.7203 34.904 14.0014 35.189 14.3241C35.7152 14.9054 36.1113 15.6069 36.3383 16.3596C36.3816 16.4912 36.4108 16.6264 36.44 16.7613C36.4523 16.8181 36.4646 16.8749 36.4779 16.9313C36.4991 17.0368 36.5149 17.1295 36.5306 17.2215C36.5402 17.2781 36.5498 17.3345 36.5606 17.3935ZM33.3764 30.1889C33.8304 31.4824 34.2774 33.3512 34.7137 35.7976C34.7905 36.2251 34.8378 36.611 34.8591 36.96L34.5659 38.6346C34.3767 38.8669 34.0941 39.0193 33.7122 39.0884C33.1978 39.1813 32.8833 38.9002 32.7662 38.244L32.1892 34.4993C31.3899 30.0258 29.835 27.9974 27.5257 28.4167C26.795 28.5489 26.3279 28.9002 26.1245 29.4708C25.8987 30.1485 25.8171 30.8297 25.8786 31.517C26.0122 32.7247 26.1671 33.8157 26.3409 34.7899L27.113 39.1146C27.1698 39.4326 27.0598 39.7292 26.7831 40.0055C26.5064 40.2818 26.2002 40.4498 25.8644 40.5105C25.4293 40.5891 25.1017 40.3521 24.8806 39.7959L23.8673 33.606C23.4759 31.4193 22.8681 30.1234 22.0416 29.7185C21.6408 29.5243 21.0791 29.4922 20.359 29.6232C19.6377 29.753 19.1529 30.1187 18.9034 30.7178C18.6539 31.3181 18.6362 32.2137 18.849 33.4071L20.0173 38.9229C20.3235 40.6332 20.0125 41.5717 19.0843 41.7397C18.5712 41.8326 18.2141 41.5991 18.0119 41.0405C17.2941 37.0243 16.418 33.4881 15.3833 30.4319C15.3124 30.0341 15.3916 29.6506 15.621 29.2802C15.8504 28.911 16.1472 28.693 16.5126 28.6263C16.8767 28.5596 17.1865 28.7192 17.4384 29.1051C17.9953 27.9986 18.8857 27.334 20.1095 27.1125C21.6691 26.8302 23.0088 27.3686 24.1274 28.7252C24.8581 27.1149 26.0394 26.162 27.6676 25.8667C29.2958 25.5713 30.6319 26.006 31.676 27.172C32.3547 27.8902 32.9211 28.8967 33.3764 30.1889Z" fill="#FFCA99"/>
<path fill-rule="evenodd" clip-rule="evenodd" d="M62.6813 23.0451C62.9355 23.3917 63.1483 23.7692 63.3068 24.1706H63.308C63.6048 24.8971 63.7395 25.6939 63.697 26.4788C63.692 26.6163 63.6738 26.7527 63.6555 26.8887C63.6477 26.947 63.6399 27.0053 63.6331 27.0636C63.6171 27.1698 63.6007 27.2616 63.5844 27.3528C63.5741 27.4099 63.5639 27.4668 63.5539 27.527L63.3955 28.4322L62.1279 35.6713L59.0808 53.0629C59.0808 53.0629 58.9744 53.4964 58.8029 54.1622L58.745 54.491C58.7285 54.5795 58.7141 54.6637 58.6996 54.7486C58.6632 54.9615 58.6261 55.1782 58.5534 55.4771C58.5273 55.6103 58.4826 55.739 58.4379 55.8674C58.4179 55.925 58.3979 55.9826 58.3796 56.0405C58.3348 56.1708 58.2767 56.2964 58.2186 56.4218C58.1939 56.4752 58.1692 56.5287 58.1455 56.5824C57.7919 57.2863 57.2752 57.9021 56.658 58.3809C56.0408 58.8585 55.3195 59.2075 54.5533 59.3683C54.1702 59.4457 53.7788 59.4933 53.3886 59.4838L53.0953 59.4755C53.0299 59.4715 52.9655 59.4633 52.9011 59.4551C52.869 59.451 52.8368 59.4469 52.8045 59.4433L52.5171 59.4052L52.2925 59.3647L51.9756 59.3087C51.9425 59.3254 51.836 59.3683 51.784 59.3683L47.9553 58.687L40.7685 57.4102L37.1751 56.7718L35.3778 56.4526L34.9285 56.3728L34.8717 56.3621L34.8008 56.3466L34.6577 56.3144L34.3728 56.2478C34.1871 56.1906 34.0003 56.1275 33.8182 56.0584C33.768 56.0351 33.7173 56.0126 33.6666 55.9901C33.5381 55.9331 33.4094 55.8759 33.2873 55.8059C32.5625 55.4128 31.9381 54.8447 31.4675 54.1694C31.2133 53.8228 31.0005 53.4452 30.842 53.0438C30.5452 52.3173 30.4104 51.5205 30.453 50.7356C30.458 50.5982 30.4762 50.4619 30.4944 50.326C30.5023 50.2675 30.5101 50.2092 30.5168 50.1508C30.5328 50.0448 30.5492 49.9532 30.5655 49.8621C30.5758 49.8048 30.586 49.7478 30.5961 49.6875L30.7545 48.7823L32.0221 41.5431L35.068 24.1516C35.068 24.1516 35.1744 23.718 35.3459 23.0522L35.4038 22.7235C35.4203 22.6348 35.4348 22.5505 35.4493 22.4656C35.4857 22.2528 35.5227 22.0361 35.5954 21.7373C35.6215 21.6041 35.6662 21.4755 35.7109 21.347C35.7309 21.2894 35.7509 21.2319 35.7692 21.1739C35.814 21.0437 35.8721 20.9181 35.9301 20.7927C35.9549 20.7393 35.9796 20.6858 36.0033 20.632C36.3569 19.9281 36.8736 19.3123 37.4908 18.8335C38.108 18.3559 38.8293 18.007 39.5955 17.8462C39.9787 17.7688 40.37 17.7211 40.7602 17.7306L41.0535 17.739C41.1189 17.743 41.1833 17.7512 41.2477 17.7594C41.2798 17.7635 41.312 17.7676 41.3443 17.7711L41.6317 17.8093L41.8563 17.8497L42.1732 17.9057C42.2063 17.889 42.3128 17.8462 42.3648 17.8462L46.1935 18.5274L53.3803 19.8042L56.9737 20.4426L58.771 20.7618L59.2203 20.8416L59.2771 20.8524L59.348 20.8678L59.4911 20.9L59.776 20.9667C59.9617 21.0239 60.1485 21.087 60.3306 21.1561C60.3808 21.1793 60.4315 21.2018 60.4822 21.2244C60.6107 21.2814 60.7394 21.3386 60.8615 21.4086C61.5863 21.8016 62.2107 22.3698 62.6813 23.0451ZM60.9396 28.3786L61.2505 26.6003L61.2494 26.6015C61.3227 26.1739 61.3014 25.738 61.1891 25.3235C61.1051 25.0139 60.9715 24.7185 60.7953 24.4493C60.7863 24.4369 60.7774 24.4244 60.7684 24.4119C60.7362 24.3669 60.7039 24.3219 60.6688 24.279C60.3921 23.9491 60.0433 23.6859 59.6566 23.5072L59.5112 23.4393L59.3587 23.3893C59.3386 23.3832 59.3186 23.3759 59.2987 23.3687C59.2682 23.3576 59.2376 23.3465 59.2061 23.3393L59.0489 23.3035C58.9807 23.2838 58.8638 23.2633 58.746 23.2426C58.7147 23.2371 58.6833 23.2316 58.6527 23.2261L58.2105 23.1475L44.077 20.6368L42.3104 20.3235L41.4271 20.1663L41.2095 20.1282L41.0499 20.1091C40.9506 20.0901 40.8492 20.089 40.7487 20.0879L40.7307 20.0877C40.305 20.0829 39.877 20.1675 39.4891 20.3509C39.1013 20.532 38.7525 20.7988 38.4746 21.1251C38.1967 21.4515 37.9874 21.8362 37.8775 22.253L37.842 22.4114L37.8231 22.49L37.8136 22.5305L37.8042 22.5865L37.7261 23.032L37.57 23.9217L36.9469 27.4805L34.4543 41.717L33.2081 48.8347L32.8971 50.6129C32.8238 51.0405 32.845 51.4764 32.9574 51.8909C33.0413 52.1994 33.175 52.496 33.3511 52.7651L33.3571 52.7736C33.3964 52.829 33.4349 52.8833 33.4777 52.9355C33.7555 53.2654 34.1043 53.5286 34.491 53.7073L34.6364 53.7751L34.789 53.8252C34.8091 53.8313 34.829 53.8385 34.849 53.8458C34.8795 53.8569 34.91 53.868 34.9415 53.8752L35.0988 53.9109C35.167 53.9307 35.284 53.9512 35.4019 53.9719C35.4331 53.9774 35.4644 53.9829 35.4949 53.9883L35.9371 54.0669L50.0707 56.5777L51.8372 56.8909L52.7205 57.0481L52.9381 57.0862L53.0977 57.1053C53.2029 57.1255 53.3105 57.1255 53.4169 57.1267C53.8426 57.1315 54.2707 57.0469 54.6585 56.8635C55.0463 56.6825 55.3952 56.4157 55.673 56.0893C55.9509 55.763 56.1602 55.3783 56.2702 54.9614L56.3056 54.803L56.3245 54.7244L56.334 54.6839L56.3435 54.6279L56.4215 54.1825L56.5776 53.2928L57.2007 49.7339L59.6933 35.4974L60.9396 28.3786ZM48.0226 33.8907C49.2559 32.6294 50.689 32.1411 52.3195 32.4245L52.3136 32.4186C53.9442 32.702 55.0521 33.5715 55.6375 35.027C56.0312 35.9369 56.2216 37.0779 56.2109 38.4488C56.1991 39.8209 55.9839 41.7313 55.5641 44.1801C55.401 45.1365 55.1739 45.8607 54.8866 46.3538C54.5981 46.8469 54.1381 47.0374 53.5055 46.9279C52.9912 46.8385 52.7913 46.4657 52.9037 45.8083L53.6332 42.091C54.4018 37.6115 53.6297 35.1711 51.3168 34.7685C50.5861 34.6411 50.028 34.8114 49.6425 35.2771C49.2003 35.8357 48.8917 36.4479 48.7167 37.1149C48.4329 38.2964 48.2071 39.3743 48.0403 40.3497L47.2978 44.6804C47.2434 44.9996 47.0388 45.2401 46.6853 45.4045C46.3317 45.5689 45.9865 45.6213 45.6506 45.5629C45.2167 45.4867 44.9885 45.1496 44.9696 44.5517L46.1189 38.3857C46.4949 36.1966 46.3625 34.7685 45.724 34.1039C45.413 33.7835 44.8963 33.5596 44.175 33.4345C43.4537 33.3083 42.8731 33.4846 42.4356 33.9622C41.9969 34.4398 41.6753 35.2759 41.4708 36.4705L40.6963 42.0565C40.4019 43.7692 39.7905 44.5446 38.8623 44.3826C38.348 44.2933 38.0914 43.9526 38.0914 43.3571C38.7819 39.3361 39.1591 35.7118 39.2242 32.4829C39.2927 32.0851 39.4973 31.7516 39.839 31.4824C40.1796 31.2144 40.5331 31.112 40.8997 31.1751C41.2662 31.2394 41.5015 31.4955 41.6079 31.9445C42.5066 31.0965 43.5684 30.7785 44.7946 30.9917C46.3554 31.2633 47.4314 32.2304 48.0226 33.8907Z" fill="white"/>
</g>
</g>
<defs>
<filter id="filter0_d_101_467" x="-21.7031" y="-10.4844" width="115.408" height="106.969" filterUnits="userSpaceOnUse" color-interpolation-filters="sRGB">
<feFlood flood-opacity="0" result="BackgroundImageFix"/>
<feColorMatrix in="SourceAlpha" type="matrix" values="0 0 0 0 0 0 0 0 0 0 0 0 0 0 0 0 0 0 127 0" result="hardAlpha"/>
<feOffset dy="7"/>
<feGaussianBlur stdDeviation="15"/>
<feComposite in2="hardAlpha" operator="out"/>
<feColorMatrix type="matrix" values="0 0 0 0 0 0 0 0 0 0 0 0 0 0 0 0 0 0 0.15 0"/>
<feBlend mode="normal" in2="BackgroundImageFix" result="effect1_dropShadow_101_467"/>
<feBlend mode="normal" in="SourceGraphic" in2="effect1_dropShadow_101_467" result="shape"/>
</filter>
<linearGradient id="paint0_linear_101_467" x1="7.83847e-07" y1="14.9766" x2="72" y2="52.2422" gradientUnits="userSpaceOnUse">
<stop stop-color="#D66526"/>
<stop offset="0.484375" stop-color="#F99532"/>
<stop offset="0.989583" stop-color="#FFAC59"/>
</linearGradient>
<radialGradient id="paint1_radial_101_467" cx="0" cy="0" r="1" gradientUnits="userSpaceOnUse" gradientTransform="translate(36 36) rotate(90) scale(36)">
<stop stop-color="#FF6500"/>
<stop offset="1" stop-color="#F99532" stop-opacity="0"/>
</radialGradient>
<linearGradient id="paint2_linear_101_467" x1="67.7109" y1="2.32031" x2="43.9453" y2="45.5625" gradientUnits="userSpaceOnUse">
<stop stop-color="white"/>
<stop offset="1" stop-color="#DA6E2E" stop-opacity="0"/>
</linearGradient>
<clipPath id="clip0_101_467">
<rect width="72" height="72" fill="white"/>
</clipPath>
</defs>
</svg>
