<svg width="96" height="96" viewBox="0 0 96 96" fill="none" xmlns="http://www.w3.org/2000/svg">
<g clip-path="url(#clip0_101_469)">
<path d="M0 15.9375C0 7.13546 7.13546 0 15.9375 0H80.0625C88.8645 0 96 7.13546 96 15.9375V80.0625C96 88.8645 88.8645 96 80.0625 96H15.9375C7.13546 96 0 88.8645 0 80.0625V15.9375Z" fill="url(#paint0_linear_101_469)"/>
<path d="M0 15.9375C0 7.13546 7.13546 0 15.9375 0H80.0625C88.8645 0 96 7.13546 96 15.9375V80.0625C96 88.8645 88.8645 96 80.0625 96H15.9375C7.13546 96 0 88.8645 0 80.0625V15.9375Z" fill="url(#paint1_radial_101_469)" fill-opacity="0.5"/>
<path d="M0 15.9375C0 7.13546 7.13546 0 15.9375 0H80.0625C88.8645 0 96 7.13546 96 15.9375V80.0625C96 88.8645 88.8645 96 80.0625 96H15.9375C7.13546 96 0 88.8645 0 80.0625V15.9375Z" fill="url(#paint2_linear_101_469)" fill-opacity="0.2"/>
<g filter="url(#filter0_d_101_469)">
<path fill-rule="evenodd" clip-rule="evenodd" d="M48.7475 23.1913L48.9588 24.3982H48.954L49.9552 30.12C49.8732 30.3026 49.7991 30.4884 49.7486 30.6837L49.7013 30.895L49.6761 30.9998L49.6635 31.0538L49.6509 31.1284L49.5468 31.7223L49.3387 32.9086L48.5079 37.6537L48.2477 39.1433L47.5146 34.9508L45.8529 25.459L45.4383 23.0881C45.3358 22.5195 45.1119 21.9828 44.784 21.5143C44.5396 21.1649 44.2369 20.8553 43.8948 20.5996C43.8793 20.5891 43.8639 20.5785 43.8484 20.5679C43.7869 20.5258 43.7254 20.4836 43.6599 20.4455C43.1649 20.1597 42.6068 19.9898 42.0423 19.9437L41.8295 19.9247L41.6167 19.931C41.5874 19.933 41.5582 19.933 41.529 19.9331C41.4873 19.9332 41.4456 19.9333 41.4038 19.9389L41.191 19.9675C41.0852 19.9745 40.9031 20.0076 40.7284 20.0393C40.7053 20.0435 40.6823 20.0476 40.6597 20.0517L40.0701 20.1565L21.2253 23.5041L18.8699 23.9218L17.6922 24.1314L17.4021 24.1838L17.194 24.2331C17.0597 24.2556 16.9325 24.3009 16.8056 24.3461L16.7841 24.3537C16.2481 24.5443 15.7514 24.846 15.3478 25.2542C14.9442 25.6607 14.6273 26.1546 14.4271 26.6914C14.2285 27.2281 14.1386 27.8046 14.1906 28.3779L14.219 28.5923L14.2316 28.7003L14.2379 28.7558L14.2505 28.8305L14.3546 29.4244L14.5627 30.6107L15.3936 35.3558L18.717 54.3378L20.3787 63.8297L20.7933 66.2006C20.8958 66.7691 21.1197 67.3059 21.4476 67.7744C21.692 68.1238 21.9947 68.4334 22.3368 68.6891C22.3522 68.6996 22.3676 68.7101 22.3829 68.7206C22.4445 68.7628 22.5061 68.805 22.5717 68.8431C23.0667 69.129 23.6248 69.2989 24.1892 69.345L24.4021 69.364L24.6149 69.3577C24.6441 69.3557 24.6733 69.3556 24.7026 69.3556C24.7443 69.3554 24.786 69.3553 24.8278 69.3497L25.0406 69.3211C25.1464 69.3141 25.3286 69.2811 25.5033 69.2494C25.5264 69.2452 25.5493 69.2411 25.5719 69.237L26.1615 69.1322L43.5432 66.045L43.5291 66.1276L43.1144 68.4985C43.0608 68.8114 43.0482 69.1274 43.0703 69.4403L33.7307 71.0982L28.9395 71.9494L26.5431 72.375L25.944 72.4814L25.8683 72.4941L25.7721 72.5068L25.5782 72.5322L25.1919 72.5798C24.9334 72.5925 24.6717 72.6005 24.4115 72.5973C24.3351 72.5908 24.2586 72.5856 24.182 72.5805C23.998 72.5681 23.8142 72.5557 23.6327 72.5243C22.5465 72.3655 21.5075 71.9399 20.612 71.3094C20.1375 70.9918 19.6992 70.617 19.3192 70.1866C18.6176 69.4117 18.0895 68.4763 17.7868 67.4727C17.7291 67.2972 17.6901 67.117 17.6512 66.9371C17.6349 66.8614 17.6185 66.7857 17.6008 66.7104C17.5724 66.5698 17.5514 66.4462 17.5305 66.3235C17.5176 66.248 17.5048 66.1728 17.4904 66.0942L17.2791 64.8873L15.5906 55.2335L11.5341 32.0431C11.5341 32.0431 11.471 31.4508 11.3843 30.5376L11.3071 30.0993C11.2884 29.9875 11.2693 29.8814 11.2502 29.7751C11.198 29.486 11.1455 29.1945 11.1005 28.7765C11.0724 28.5988 11.0703 28.4189 11.0681 28.2388C11.0672 28.1565 11.0662 28.0742 11.0627 27.992C11.0604 27.8037 11.0769 27.6153 11.0934 27.427C11.0998 27.3533 11.1063 27.2796 11.1116 27.2059C11.2346 26.1625 11.6035 25.1541 12.16 24.2696C12.7181 23.3882 13.4623 22.618 14.3499 22.0654C14.7945 21.7922 15.2627 21.5524 15.7562 21.3857L16.1267 21.2602C16.2168 21.2326 16.3086 21.2117 16.4002 21.1908C16.4352 21.1828 16.4702 21.1749 16.505 21.1665L16.8834 21.0824L17.183 21.0299L17.6055 20.9553C17.6386 20.9204 17.7521 20.8171 17.8183 20.7933L22.9233 19.8881L32.5072 18.1873L37.2984 17.3361L39.6948 16.9105L40.2939 16.8041L40.3696 16.7914L40.4658 16.7787L40.6597 16.7533L41.0459 16.7057C41.3045 16.693 41.5662 16.685 41.8264 16.6882C41.9028 16.6947 41.9793 16.6999 42.0559 16.705C42.2398 16.7175 42.4237 16.7298 42.6052 16.7613C43.6914 16.9201 44.7304 17.3457 45.6259 17.9761C46.1004 18.2937 46.5387 18.6685 46.9187 19.0989C47.6203 19.8738 48.1484 20.8092 48.4511 21.8129C48.5088 21.9883 48.5478 22.1685 48.5867 22.3484C48.603 22.4242 48.6194 22.4999 48.6371 22.5751C48.6655 22.7157 48.6865 22.8393 48.7074 22.962C48.7203 23.0375 48.7331 23.1127 48.7475 23.1913ZM44.5018 40.2519C45.1072 41.9766 45.7032 44.4682 46.2849 47.7301C46.3874 48.3002 46.4505 48.8147 46.4788 49.28L46.0878 51.5128C45.8356 51.8225 45.4588 52.0258 44.9496 52.1179C44.2637 52.2418 43.8444 51.867 43.6883 50.992L42.9189 45.9991C41.8532 40.0344 39.78 37.3299 36.7009 37.8889C35.7266 38.0652 35.1039 38.5337 34.8327 39.2943C34.5316 40.1979 34.4228 41.1063 34.5048 42.0226C34.6829 43.6329 34.8895 45.0876 35.1212 46.3866L36.1507 52.1528C36.2264 52.5768 36.0798 52.9723 35.7108 53.3407C35.3419 53.7091 34.9336 53.933 34.4858 54.014C33.9057 54.1188 33.469 53.8028 33.1741 53.0612L31.823 44.8081C31.3012 41.8924 30.4908 40.1646 29.3888 39.6246C28.8543 39.3658 28.1055 39.3229 27.1453 39.4976C26.1836 39.6707 25.5372 40.1582 25.2046 40.957C24.8719 41.7574 24.8483 42.9516 25.132 44.5429L26.6897 51.8971C27.098 54.1776 26.6834 55.429 25.4458 55.6529C24.7616 55.7768 24.2854 55.4655 24.0158 54.7207C23.0589 49.3658 21.8906 44.6508 20.5111 40.5759C20.4165 40.0455 20.5222 39.5341 20.828 39.0402C21.1339 38.5479 21.5296 38.2573 22.0167 38.1684C22.5023 38.0795 22.9154 38.2923 23.2512 38.8068C23.9938 37.3315 25.1809 36.4454 26.8127 36.15C28.8922 35.7736 30.6784 36.4914 32.1699 38.3002C33.1442 36.1532 34.7192 34.8827 36.8901 34.4889C39.0611 34.095 40.8426 34.6747 42.2347 36.2294C43.1396 37.187 43.8948 38.5289 44.5018 40.2519Z" fill="#FFCA99"/>
<path fill-rule="evenodd" clip-rule="evenodd" d="M83.576 30.7268C83.915 31.1889 84.1988 31.6923 84.41 32.2275H84.4116C84.8073 33.1962 84.987 34.2586 84.9303 35.3051C84.9237 35.4884 84.8993 35.6701 84.875 35.8514C84.8646 35.9293 84.8542 36.0071 84.8452 36.0849C84.8238 36.2264 84.8019 36.3488 84.7801 36.4703C84.7665 36.5466 84.7529 36.6225 84.7395 36.7026L84.5283 37.9095L82.8382 47.5618L78.7754 70.7505C78.7754 70.7505 78.6335 71.3286 78.4049 72.2163L78.3276 72.6546C78.3056 72.7728 78.2864 72.8851 78.267 72.9983C78.2185 73.2821 78.1691 73.571 78.0722 73.9695C78.0374 74.1472 77.9777 74.3187 77.9182 74.49C77.8915 74.5668 77.8649 74.6435 77.8405 74.7207C77.7808 74.8943 77.7033 75.0617 77.6259 75.2289C77.5929 75.3002 77.5599 75.3715 77.5283 75.4433C77.0569 76.3818 76.3679 77.2028 75.545 77.8412C74.722 78.478 73.7603 78.9433 72.7387 79.1577C72.2279 79.2609 71.706 79.3245 71.1857 79.3118L70.7948 79.3006C70.7075 79.2953 70.6217 79.2844 70.5358 79.2735C70.4929 79.268 70.45 79.2625 70.4069 79.2578L70.0238 79.2069L69.7243 79.153L69.3017 79.0783C69.2576 79.1005 69.1157 79.1577 69.0463 79.1577L63.9414 78.2494L54.359 76.547L49.5678 75.6958L47.1714 75.2702L46.5723 75.1638L46.4966 75.1495L46.402 75.1288L46.2113 75.0859L45.8313 74.997C45.5838 74.9208 45.3347 74.8366 45.0919 74.7445C45.025 74.7135 44.9575 74.6835 44.8899 74.6535C44.7185 74.5775 44.5468 74.5012 44.384 74.4078C43.4176 73.8838 42.5852 73.1263 41.9577 72.2259C41.6187 71.7637 41.3349 71.2603 41.1237 70.7251C40.728 69.7564 40.5482 68.694 40.605 67.6475C40.6116 67.4642 40.636 67.2825 40.6602 67.1012C40.6707 67.0234 40.6811 66.9456 40.6901 66.8678C40.7114 66.7263 40.7333 66.604 40.7551 66.4824C40.7688 66.4062 40.7824 66.3302 40.7957 66.25L41.007 65.0431L42.6971 55.3909L46.7583 32.2021C46.7583 32.2021 46.9002 31.624 47.1288 30.7363L47.2061 30.298C47.2281 30.1798 47.2473 30.0675 47.2666 29.9543C47.3152 29.6705 47.3645 29.3816 47.4615 28.9831C47.4963 28.8055 47.556 28.6339 47.6155 28.4626C47.6422 28.3858 47.6688 28.3091 47.6932 28.2319C47.7529 28.0583 47.8304 27.8909 47.9078 27.7237C47.9408 27.6524 47.9738 27.5811 48.0054 27.5094C48.4768 26.5708 49.1658 25.7498 49.9887 25.1114C50.8117 24.4746 51.7734 24.0093 52.795 23.7949C53.3058 23.6917 53.8277 23.6282 54.3479 23.6409L54.7389 23.652C54.8262 23.6573 54.912 23.6682 54.9978 23.6791C55.0407 23.6846 55.0837 23.6901 55.1268 23.6949L55.5099 23.7457L55.8094 23.7997L56.2319 23.8743C56.2761 23.8521 56.418 23.7949 56.4874 23.7949L61.5923 24.7033L71.1747 26.4057L75.9659 27.2569L78.3623 27.6825L78.9614 27.7889L79.0371 27.8032L79.1317 27.8238L79.3224 27.8667L79.7024 27.9556C79.9499 28.0318 80.199 28.116 80.4418 28.2081C80.5087 28.2391 80.5763 28.2691 80.6439 28.2991C80.8152 28.3752 80.9869 28.4514 81.1497 28.5448C82.1161 29.0688 82.9485 29.8263 83.576 30.7268ZM81.2537 37.8381L81.6684 35.4671L81.6668 35.4687C81.7645 34.8986 81.7362 34.3174 81.5864 33.7647C81.4744 33.3518 81.2963 32.958 81.0614 32.5991C81.0493 32.5824 81.0373 32.5656 81.0253 32.5488C80.9824 32.489 80.9395 32.429 80.8927 32.372C80.5238 31.9321 80.0587 31.5811 79.5431 31.3429L79.3492 31.2524L79.1458 31.1857C79.119 31.1776 79.0925 31.1679 79.0658 31.1582C79.0252 31.1434 78.9844 31.1286 78.9425 31.119L78.7328 31.0714C78.6418 31.045 78.4859 31.0177 78.3288 30.9901C78.2871 30.9828 78.2453 30.9755 78.2046 30.9682L77.615 30.8633L58.7702 27.5157L56.4148 27.0981L55.2371 26.8884L54.9471 26.8376L54.7342 26.8122C54.6018 26.7867 54.4665 26.7853 54.3324 26.7839L54.3085 26.7836C53.741 26.7773 53.1703 26.89 52.6531 27.1346C52.136 27.376 51.6709 27.7317 51.3004 28.1668C50.9299 28.602 50.6509 29.1149 50.5043 29.6707L50.457 29.8819L50.4317 29.9867L50.4191 30.0407L50.4065 30.1154L50.3025 30.7093L50.0944 31.8956L49.2635 36.6407L45.9401 55.6227L44.2784 65.1129L43.8638 67.4839C43.766 68.054 43.7944 68.6353 43.9442 69.1879C44.0561 69.5992 44.2343 69.9946 44.4692 70.3535C44.5243 70.4313 44.5779 70.5076 44.6378 70.5806C45.0083 71.0205 45.4734 71.3715 45.989 71.6097L46.1829 71.7002L46.3863 71.7669C46.4131 71.7751 46.4397 71.7847 46.4663 71.7944C46.5069 71.8092 46.5477 71.824 46.5896 71.8336L46.7993 71.8812C46.8903 71.9076 47.0463 71.935 47.2034 71.9625C47.2451 71.9698 47.2868 71.9771 47.3275 71.9845L47.9171 72.0893L66.7619 75.4369L69.1173 75.8546L70.295 76.0642L70.5851 76.115L70.7979 76.1404C70.9304 76.1659 71.0656 76.1673 71.1997 76.1687L71.2236 76.169C71.7911 76.1753 72.3619 76.0626 72.879 75.818C73.3961 75.5767 73.8612 75.2209 74.2317 74.7858C74.6022 74.3507 74.8812 73.8377 75.0278 73.2819L75.0751 73.0707L75.1004 72.9659L75.113 72.9119L75.1256 72.8373L75.2296 72.2433L75.4378 71.057L76.2686 66.3119L79.592 47.3299L81.2537 37.8381ZM64.0311 45.1876C65.6755 43.5059 67.5863 42.8548 69.7604 43.2327L69.7525 43.2248C71.9266 43.6027 73.4038 44.762 74.1842 46.7026C74.7092 47.9159 74.9631 49.4372 74.9489 51.2651C74.9331 53.0945 74.6462 55.6418 74.0865 58.9068C73.8689 60.182 73.5662 61.1476 73.1831 61.805C72.7984 62.4625 72.1851 62.7166 71.3417 62.5705C70.6559 62.4514 70.3894 61.9543 70.5392 61.0777L71.5119 56.1214C72.5367 50.1487 71.5072 46.8948 68.4234 46.358C67.4491 46.1881 66.705 46.4152 66.191 47.0361C65.6014 47.7809 65.1899 48.5972 64.9566 49.4865C64.5782 51.0618 64.2771 52.499 64.0548 53.7996L63.0647 59.5738C62.9922 59.9994 62.7194 60.3202 62.248 60.5394C61.7766 60.7585 61.3163 60.8284 60.8685 60.7506C60.2899 60.6489 59.9856 60.1995 59.9604 59.4023L61.4928 51.1809C61.9942 48.2621 61.8176 46.358 60.9663 45.4719C60.5516 45.0447 59.8627 44.7461 58.901 44.5794C57.9392 44.411 57.1651 44.6461 56.5818 45.2829C55.9969 45.9197 55.5681 47.0345 55.2953 48.6273L54.2627 56.0753C53.8701 58.3589 53.055 59.3928 51.8174 59.1768C51.1316 59.0577 50.7895 58.6035 50.7895 57.8095C51.7102 52.4482 52.2131 47.6157 52.2999 43.3105C52.3913 42.7801 52.664 42.3355 53.1197 41.9766C53.5737 41.6192 54.0451 41.4827 54.5338 41.5668C55.0226 41.6526 55.3363 41.994 55.4782 42.5927C56.6764 41.462 58.0922 41.038 59.7271 41.3223C61.8082 41.6844 63.2428 42.9739 64.0311 45.1876Z" fill="white"/>
</g>
</g>
<defs>
<filter id="filter0_d_101_469" x="-18.9375" y="-6.3125" width="133.878" height="122.626" filterUnits="userSpaceOnUse" color-interpolation-filters="sRGB">
<feFlood flood-opacity="0" result="BackgroundImageFix"/>
<feColorMatrix in="SourceAlpha" type="matrix" values="0 0 0 0 0 0 0 0 0 0 0 0 0 0 0 0 0 0 127 0" result="hardAlpha"/>
<feOffset dy="7"/>
<feGaussianBlur stdDeviation="15"/>
<feComposite in2="hardAlpha" operator="out"/>
<feColorMatrix type="matrix" values="0 0 0 0 0 0 0 0 0 0 0 0 0 0 0 0 0 0 0.15 0"/>
<feBlend mode="normal" in2="BackgroundImageFix" result="effect1_dropShadow_101_469"/>
<feBlend mode="normal" in="SourceGraphic" in2="effect1_dropShadow_101_469" result="shape"/>
</filter>
<linearGradient id="paint0_linear_101_469" x1="1.04513e-06" y1="19.9687" x2="96" y2="69.6562" gradientUnits="userSpaceOnUse">
<stop stop-color="#D66526"/>
<stop offset="0.484375" stop-color="#F99532"/>
<stop offset="0.989583" stop-color="#FFAC59"/>
</linearGradient>
<radialGradient id="paint1_radial_101_469" cx="0" cy="0" r="1" gradientUnits="userSpaceOnUse" gradientTransform="translate(48 48) rotate(90) scale(48)">
<stop stop-color="#FF6500"/>
<stop offset="1" stop-color="#F99532" stop-opacity="0"/>
</radialGradient>
<linearGradient id="paint2_linear_101_469" x1="90.2812" y1="3.09374" x2="58.5937" y2="60.75" gradientUnits="userSpaceOnUse">
<stop stop-color="white"/>
<stop offset="1" stop-color="#DA6E2E" stop-opacity="0"/>
</linearGradient>
<clipPath id="clip0_101_469">
<rect width="96" height="96" fill="white"/>
</clipPath>
</defs>
</svg>
