<svg width="152" height="152" viewBox="0 0 152 152" fill="none" xmlns="http://www.w3.org/2000/svg">
<g clip-path="url(#clip0_101_464)">
<path d="M0 25.2344C0 11.2978 11.2978 0 25.2344 0H126.766C140.702 0 152 11.2978 152 25.2344V126.766C152 140.702 140.702 152 126.766 152H25.2344C11.2978 152 0 140.702 0 126.766V25.2344Z" fill="url(#paint0_linear_101_464)"/>
<path d="M0 25.2344C0 11.2978 11.2978 0 25.2344 0H126.766C140.702 0 152 11.2978 152 25.2344V126.766C152 140.702 140.702 152 126.766 152H25.2344C11.2978 152 0 140.702 0 126.766V25.2344Z" fill="url(#paint1_radial_101_464)" fill-opacity="0.5"/>
<path d="M0 25.2344C0 11.2978 11.2978 0 25.2344 0H126.766C140.702 0 152 11.2978 152 25.2344V126.766C152 140.702 140.702 152 126.766 152H25.2344C11.2978 152 0 140.702 0 126.766V25.2344Z" fill="url(#paint2_linear_101_464)" fill-opacity="0.2"/>
<g filter="url(#filter0_d_101_464)">
<path fill-rule="evenodd" clip-rule="evenodd" d="M77.1835 36.7195L77.518 38.6305H77.5106L79.0957 47.69C78.9659 47.9791 78.8485 48.2733 78.7687 48.5826L78.6938 48.917L78.6538 49.083L78.6339 49.1684L78.6139 49.2866L78.4491 50.227L78.1196 52.1053L76.8041 59.6184L76.3922 61.9769L75.2315 55.3388L72.6005 40.3101L71.9439 36.5561C71.7817 35.6559 71.4272 34.8061 70.908 34.0643C70.5211 33.5111 70.0418 33.0208 69.5001 32.616C69.4757 32.5994 69.4513 32.5827 69.4269 32.566C69.3295 32.4992 69.232 32.4324 69.1282 32.3721C68.3444 31.9195 67.4607 31.6505 66.567 31.5775L66.2301 31.5474L65.8931 31.5574C65.8468 31.5605 65.8005 31.5607 65.7543 31.5608C65.6882 31.561 65.6221 31.5611 65.5561 31.57L65.2191 31.6153C65.0515 31.6264 64.7632 31.6787 64.4866 31.7289C64.45 31.7355 64.4137 31.7421 64.3778 31.7485L63.4443 31.9145L33.6067 37.2149L29.8773 37.8762L28.0126 38.2081L27.5533 38.2911L27.2238 38.369C27.0112 38.4047 26.8097 38.4765 26.6088 38.548L26.5748 38.5601C25.7261 38.8618 24.9398 39.3396 24.3007 39.9858C23.6617 40.6295 23.16 41.4115 22.8429 42.2613C22.5284 43.1112 22.3861 44.0239 22.4685 44.9316L22.5134 45.2711L22.5334 45.4421L22.5434 45.5301L22.5634 45.6483L22.7281 46.5886L23.0576 48.4669L24.3731 55.98L29.6352 86.0349L32.2662 101.064L32.9227 104.818C33.085 105.718 33.4395 106.568 33.9587 107.309C34.3456 107.863 34.8249 108.353 35.3666 108.758C35.391 108.774 35.4154 108.791 35.4397 108.808C35.5372 108.875 35.6346 108.941 35.7385 109.002C36.5223 109.454 37.406 109.723 38.2996 109.796L38.6366 109.826L38.9736 109.816C39.0199 109.813 39.0661 109.813 39.1124 109.813C39.1785 109.813 39.2445 109.813 39.3106 109.804L39.6476 109.758C39.8152 109.747 40.1036 109.695 40.3802 109.645C40.4167 109.638 40.453 109.632 40.4888 109.625L41.4224 109.459L68.9435 104.571L68.921 104.702L68.2645 108.456C68.1796 108.951 68.1596 109.452 68.1946 109.947L53.4069 112.572L45.8208 113.92L42.0265 114.594L41.078 114.762L40.9581 114.782L40.8059 114.802L40.4988 114.843L39.8872 114.918C39.4779 114.938 39.0635 114.951 38.6516 114.946C38.5306 114.935 38.4094 114.927 38.2882 114.919C37.9969 114.899 37.7058 114.88 37.4185 114.83C35.6986 114.579 34.0535 113.905 32.6357 112.907C31.8843 112.404 31.1904 111.81 30.5888 111.129C29.4779 109.902 28.6417 108.421 28.1624 106.832C28.0711 106.554 28.0094 106.269 27.9478 105.984C27.9219 105.864 27.896 105.744 27.8679 105.625C27.823 105.402 27.7897 105.207 27.7566 105.012C27.7362 104.893 27.7159 104.774 27.6931 104.649L27.3586 102.738L24.6852 87.453L18.2623 50.7349C18.2623 50.7349 18.1625 49.7971 18.0252 48.3513L17.9029 47.6573C17.8733 47.4801 17.8431 47.3123 17.8127 47.1439C17.7302 46.6861 17.647 46.2245 17.5759 45.5628C17.5313 45.2815 17.5279 44.9966 17.5245 44.7115C17.523 44.5812 17.5214 44.4508 17.516 44.3206C17.5124 44.0224 17.5384 43.7242 17.5645 43.426C17.5747 43.3094 17.5849 43.1927 17.5933 43.076C17.788 41.424 18.3722 39.8274 19.2533 38.4268C20.137 37.0313 21.3152 35.8118 22.7206 34.9368C23.4246 34.5043 24.1659 34.1247 24.9473 33.8606L25.5339 33.662C25.6766 33.6183 25.822 33.5852 25.9671 33.5521C26.0225 33.5395 26.0778 33.5268 26.133 33.5137L26.7321 33.3804L27.2064 33.2974L27.8753 33.1792C27.9278 33.1239 28.1075 32.9605 28.2123 32.9228L36.2952 31.4895L51.4698 28.7966L59.0559 27.4489L62.8501 26.775L63.7987 26.6065L63.9185 26.5864L64.0708 26.5663L64.3778 26.5261L64.9894 26.4506C65.3988 26.4305 65.8132 26.418 66.2251 26.423C66.3461 26.4333 66.4673 26.4415 66.5885 26.4497C66.8798 26.4693 67.1709 26.4889 67.4582 26.5386C69.1781 26.7901 70.8231 27.464 72.241 28.4622C72.9924 28.9651 73.6863 29.5585 74.2879 30.2399C75.3987 31.4669 76.235 32.9479 76.7143 34.537C76.8056 34.8148 76.8673 35.1001 76.9289 35.385C76.9548 35.5049 76.9807 35.6248 77.0088 35.7439C77.0536 35.9666 77.087 36.1622 77.1201 36.3565C77.1404 36.476 77.1607 36.595 77.1835 36.7195ZM70.4612 63.7322C71.4198 66.4629 72.3633 70.408 73.2844 75.5726C73.4467 76.4753 73.5465 77.29 73.5915 78.0267L72.9724 81.562C72.573 82.0523 71.9764 82.3742 71.1701 82.52C70.0843 82.7161 69.4203 82.1227 69.1731 80.7373L67.955 72.8319C66.2675 63.3878 62.985 59.1057 58.1098 59.9908C56.5671 60.2699 55.5811 61.0116 55.1518 62.216C54.675 63.6467 54.5027 65.085 54.6326 66.5358C54.9146 69.0854 55.2416 71.3886 55.6086 73.4454L57.2386 82.5753C57.3584 83.2467 57.1263 83.8727 56.5422 84.4561C55.9581 85.0394 55.3115 85.394 54.6026 85.5222C53.684 85.6882 52.9925 85.1878 52.5257 84.0136L50.3864 70.9461C49.5602 66.3296 48.2771 63.5939 46.5323 62.739C45.686 62.3292 44.5003 62.2613 42.9801 62.5379C41.4574 62.8119 40.4339 63.5839 39.9072 64.8486C39.3805 66.1159 39.3431 68.0067 39.7924 70.5262L42.2587 82.1705C42.9052 85.7812 42.2487 87.7626 40.2892 88.1171C39.2058 88.3132 38.4519 87.8204 38.0251 86.6411C36.5099 78.1625 34.6601 70.6972 32.4759 64.2452C32.3262 63.4053 32.4934 62.5957 32.9777 61.8137C33.462 61.0343 34.0885 60.5741 34.8598 60.4333C35.6287 60.2925 36.2827 60.6294 36.8144 61.4441C37.9901 59.1082 39.8698 57.7052 42.4534 57.2375C45.7459 56.6416 48.5742 57.7781 50.9356 60.642C52.4783 57.2425 54.972 55.231 58.4094 54.6074C61.8467 53.9838 64.6674 54.9016 66.8716 57.3632C68.3044 58.8794 69.5001 61.0041 70.4612 63.7322Z" fill="#FFCA99"/>
<path fill-rule="evenodd" clip-rule="evenodd" d="M132.328 48.6507C132.865 49.3824 133.314 50.1795 133.649 51.0269H133.651C134.278 52.5607 134.562 54.2428 134.472 55.8998C134.462 56.19 134.423 56.4777 134.385 56.7647C134.368 56.8881 134.352 57.0112 134.338 57.1344C134.304 57.3585 134.269 57.5522 134.235 57.7447C134.213 57.8654 134.192 57.9856 134.17 58.1125L133.836 60.0235L131.16 75.3061L124.727 112.022C124.727 112.022 124.502 112.937 124.14 114.343L124.018 115.037C123.983 115.224 123.953 115.401 123.922 115.581C123.845 116.03 123.767 116.487 123.614 117.118C123.559 117.4 123.464 117.671 123.37 117.943C123.328 118.064 123.285 118.186 123.247 118.308C123.152 118.583 123.03 118.848 122.907 119.113C122.855 119.226 122.803 119.338 122.753 119.452C122.006 120.938 120.915 122.238 119.612 123.249C118.309 124.257 116.787 124.994 115.169 125.333C114.36 125.497 113.534 125.597 112.71 125.577L112.091 125.559C111.953 125.551 111.817 125.534 111.681 125.516C111.613 125.508 111.545 125.499 111.477 125.491L110.87 125.411L110.396 125.326L109.727 125.207C109.657 125.243 109.433 125.333 109.323 125.333L101.24 123.895L86.0678 121.199L78.4818 119.852L74.6875 119.178L73.7389 119.009L73.6191 118.987L73.4693 118.954L73.1673 118.886L72.5657 118.745C72.1738 118.625 71.7794 118.491 71.3949 118.345C71.289 118.296 71.182 118.249 71.0749 118.201C70.8037 118.081 70.5318 117.96 70.2741 117.812C68.7439 116.983 67.4259 115.783 66.4324 114.358C65.8957 113.626 65.4464 112.829 65.1119 111.981C64.4854 110.448 64.2008 108.766 64.2906 107.109C64.3011 106.818 64.3397 106.531 64.3782 106.243C64.3947 106.12 64.4112 105.997 64.4254 105.874C64.4592 105.65 64.4939 105.456 64.5284 105.264C64.55 105.143 64.5715 105.023 64.5927 104.896L64.9272 102.985L67.6031 87.7022L74.0335 50.9866C74.0335 50.9866 74.2581 50.0714 74.6201 48.6658L74.7424 47.9718C74.7773 47.7848 74.8076 47.607 74.8383 47.4279C74.9151 46.9784 74.9933 46.5209 75.1468 45.8899C75.2019 45.6086 75.2964 45.337 75.3906 45.0658C75.4329 44.9442 75.4751 44.8228 75.5137 44.7006C75.6082 44.4256 75.7309 44.1605 75.8535 43.8957C75.9058 43.7829 75.958 43.67 76.008 43.5565C76.7544 42.0705 77.8452 40.7705 79.1483 39.7597C80.4513 38.7515 81.974 38.0147 83.5916 37.6753C84.4003 37.5118 85.2266 37.4113 86.0504 37.4314L86.6694 37.449C86.8076 37.4574 86.9435 37.4747 87.0794 37.492C87.1473 37.5007 87.2153 37.5093 87.2835 37.5169L87.8901 37.5973L88.3644 37.6828L89.0334 37.801C89.1033 37.7658 89.3279 37.6753 89.4378 37.6753L97.5206 39.1135L112.693 41.809L120.279 43.1567L124.073 43.8306L125.022 43.9991L125.141 44.0217L125.291 44.0544L125.593 44.1223L126.195 44.2631C126.587 44.3838 126.981 44.517 127.366 44.6629C127.472 44.712 127.579 44.7594 127.686 44.807C127.957 44.9274 128.229 45.0481 128.486 45.1959C130.017 46.0257 131.335 47.2251 132.328 48.6507ZM128.651 59.9103L129.308 56.1563L129.305 56.1588C129.46 55.2561 129.415 54.3358 129.178 53.4608C129.001 52.8071 128.719 52.1835 128.347 51.6152C128.328 51.5889 128.309 51.5625 128.29 51.536C128.222 51.4412 128.154 51.3461 128.08 51.2557C127.495 50.5592 126.759 50.0035 125.943 49.6263L125.636 49.483L125.314 49.3774C125.271 49.3645 125.229 49.3492 125.187 49.3339C125.123 49.3105 125.058 49.287 124.992 49.2718L124.66 49.1964C124.516 49.1546 124.269 49.1113 124.02 49.0677C123.954 49.0561 123.888 49.0445 123.823 49.0329L122.89 48.867L93.0523 43.5666L89.3229 42.9053L87.4582 42.5734L86.9989 42.4929L86.6619 42.4527C86.4522 42.4123 86.238 42.4101 86.0257 42.4078L85.9879 42.4074C85.0893 42.3974 84.1857 42.5759 83.3669 42.9631C82.5481 43.3453 81.8118 43.9085 81.2251 44.5975C80.6385 45.2864 80.1967 46.0986 79.9645 46.9786L79.8896 47.3131L79.8497 47.479L79.8297 47.5645L79.8098 47.6827L79.645 48.6231L79.3155 50.5014L78 58.0144L72.7379 88.0693L70.1069 103.096L69.4504 106.85C69.2956 107.752 69.3405 108.673 69.5777 109.548C69.7549 110.199 70.037 110.825 70.4089 111.393L70.4221 111.412C70.5049 111.528 70.5859 111.643 70.676 111.753C71.2626 112.449 71.999 113.005 72.8153 113.382L73.1223 113.525L73.4444 113.631C73.4868 113.644 73.5289 113.659 73.571 113.674C73.6354 113.698 73.7 113.721 73.7664 113.737L74.0984 113.812C74.2424 113.854 74.4893 113.897 74.7381 113.941C74.8041 113.952 74.8702 113.964 74.9346 113.975L75.8682 114.141L105.706 119.442L109.435 120.103L111.3 120.435L111.759 120.515L112.096 120.556C112.306 120.596 112.52 120.598 112.732 120.601L112.77 120.601C113.669 120.611 114.572 120.432 115.391 120.045C116.21 119.663 116.946 119.1 117.533 118.411C118.12 117.722 118.561 116.91 118.794 116.03L118.868 115.695L118.908 115.529L118.928 115.444L118.948 115.326L119.113 114.385L119.443 112.507L120.758 104.994L126.02 74.939L128.651 59.9103ZM101.382 71.5471C103.986 68.8843 107.011 67.8534 110.453 68.4518L110.441 68.4392C113.883 69.0377 116.222 70.8732 117.458 73.9458C118.289 75.8668 118.691 78.2757 118.668 81.1698C118.644 84.0664 118.189 88.0995 117.303 93.2692C116.959 95.2882 116.479 96.817 115.873 97.858C115.264 98.8989 114.293 99.3013 112.957 99.0699C111.871 98.8813 111.449 98.0943 111.687 96.7064L113.227 88.8589C114.849 79.4021 113.219 74.2501 108.337 73.4002C106.794 73.1311 105.616 73.4907 104.802 74.4739C103.868 75.6531 103.217 76.9455 102.847 78.3536C102.248 80.8479 101.771 83.1235 101.419 85.1828L99.8518 94.3252C99.737 94.9991 99.3052 95.507 98.5588 95.854C97.8124 96.201 97.0835 96.3116 96.3746 96.1884C95.4585 96.0275 94.9767 95.3159 94.9367 94.0537L97.3631 81.0365C98.1569 76.415 97.8773 73.4002 96.5293 71.9971C95.8728 71.3208 94.782 70.8481 93.2593 70.584C91.7366 70.3175 90.5109 70.6896 89.5873 71.6979C88.6612 72.7062 87.9822 74.4713 87.5504 76.9933L85.9153 88.7859C85.2938 92.4017 84.0032 94.0386 82.0437 93.6966C80.9578 93.508 80.4161 92.7889 80.4161 91.5317C81.8739 83.043 82.6702 75.3916 82.8075 68.575C82.9523 67.7352 83.3842 67.0312 84.1056 66.4629C84.8245 65.8972 85.5709 65.6809 86.3447 65.8142C87.1185 65.95 87.6153 66.4906 87.8399 67.4385C89.7371 65.6482 91.9787 64.9769 94.5673 65.427C97.8623 66.0002 100.134 68.042 101.382 71.5471Z" fill="white"/>
</g>
</g>
<defs>
<filter id="filter0_d_101_464" x="-12.4844" y="3.42188" width="176.973" height="159.158" filterUnits="userSpaceOnUse" color-interpolation-filters="sRGB">
<feFlood flood-opacity="0" result="BackgroundImageFix"/>
<feColorMatrix in="SourceAlpha" type="matrix" values="0 0 0 0 0 0 0 0 0 0 0 0 0 0 0 0 0 0 127 0" result="hardAlpha"/>
<feOffset dy="7"/>
<feGaussianBlur stdDeviation="15"/>
<feComposite in2="hardAlpha" operator="out"/>
<feColorMatrix type="matrix" values="0 0 0 0 0 0 0 0 0 0 0 0 0 0 0 0 0 0 0.15 0"/>
<feBlend mode="normal" in2="BackgroundImageFix" result="effect1_dropShadow_101_464"/>
<feBlend mode="normal" in="SourceGraphic" in2="effect1_dropShadow_101_464" result="shape"/>
</filter>
<linearGradient id="paint0_linear_101_464" x1="1.65479e-06" y1="31.6172" x2="152" y2="110.289" gradientUnits="userSpaceOnUse">
<stop stop-color="#D66526"/>
<stop offset="0.484375" stop-color="#F99532"/>
<stop offset="0.989583" stop-color="#FFAC59"/>
</linearGradient>
<radialGradient id="paint1_radial_101_464" cx="0" cy="0" r="1" gradientUnits="userSpaceOnUse" gradientTransform="translate(76 76) rotate(90) scale(76)">
<stop stop-color="#FF6500"/>
<stop offset="1" stop-color="#F99532" stop-opacity="0"/>
</radialGradient>
<linearGradient id="paint2_linear_101_464" x1="142.945" y1="4.89842" x2="92.7734" y2="96.1875" gradientUnits="userSpaceOnUse">
<stop stop-color="white"/>
<stop offset="1" stop-color="#DA6E2E" stop-opacity="0"/>
</linearGradient>
<clipPath id="clip0_101_464">
<rect width="152" height="152" fill="white"/>
</clipPath>
</defs>
</svg>
